<svg id="Layer_1" data-name="Layer 1" xmlns="http://www.w3.org/2000/svg" width="1040" height="722.01" viewBox="0 0 1040 722.01"><defs><style>.cls-1{fill:#36423a;}.cls-2{fill:#525e56;}.cls-3{fill:#bdbdbd;}.cls-4,.cls-5,.cls-8{fill:none;}.cls-4{stroke:#9e9e9e;}.cls-4,.cls-5,.cls-6,.cls-7,.cls-8{stroke-miterlimit:10;}.cls-5,.cls-6,.cls-8{stroke:#858585;}.cls-6,.cls-7{fill:#f7f7f7;}.cls-7{stroke:#a3a3a3;}.cls-8{stroke-width:2px;}</style></defs><rect class="cls-1" y="10.58" width="1040" height="711.43" rx="10.64"/><rect class="cls-2" x="5.98" y="10.58" width="1029.23" height="703.94" rx="10.64"/><path class="cls-3" d="M85.48,19.14,18.87,21,16.19,700.38l1.19-.52,199.75-2.79,189.1-2.63,119-5,121.6,5,375.8,8.39L1011.93,27.52S762.3,34.24,525.15,31.59,63.33,16.9,85.48,19.14Z"/><line class="cls-4" x1="1012.37" y1="695.33" x2="1020.09" y2="17.6"/><line class="cls-4" x1="1019.97" y1="699.27" x2="525.43" y2="688.04"/><line class="cls-4" x1="525" y1="690.24" x2="1012.37" y2="695.33"/><line class="cls-5" x1="22.43" y1="20.91" x2="20.23" y2="697.12"/><path class="cls-6" d="M28.26,20.75,25.05,694.44Z"/><line class="cls-5" x1="20.23" y1="697.12" x2="521.92" y2="688.73"/><line class="cls-5" x1="25.41" y1="693.96" x2="524.01" y2="686.13"/><path class="cls-7" d="M1016.52,690c-164-3.21-327.26,2.64-491.24-.56-5.31,3.34-335.14,2.09-496.92,5-.83-229.72,3.75-465,7.57-693.8,162.06,4.4,325.16-10.11,487.7,16,163,.34,333.29-.34,496.34,0Z"/><line class="cls-8" x1="525.28" y1="689.47" x2="522.6" y2="16.61"/><line class="cls-4" x1="1019.97" y1="699.27" x2="1019.4" y2="18"/></svg>