<svg id="Layer_1" data-name="Layer 1" xmlns="http://www.w3.org/2000/svg" width="1907.9" height="243" viewBox="0 0 1907.9 243"><defs><style>.cls-1{fill:none;stroke:#000;stroke-miterlimit:10;}.cls-2{fill:#fff;}.cls-3{fill:#cf514c;}</style></defs><path class="cls-1" d="M.05,70c323,31.38,421.52,24,710.84,28.08,101.34,1.42,380.58.15,481.93.15,261.5,0,468.63-2.17,713.27-33.76"/><path class="cls-1" d="M1.8,72.75c323,31.38,421.52,24,710.84,28.08,101.34,1.42,380.58.15,481.93.15,261.5,0,468.63-2.17,713.27-33.76"/><polyline class="cls-2" points="243.91 95.05 241.54 122.71 240.56 138.59 239.57 158.64"/><path class="cls-2" d="M238.43,177.38l-.49.66.41,14.16"/><path class="cls-2" d="M243.52,94.16c-1.14.32-1.55,1.69-1.74,2.85-1.84,11.59.42,23.47-.63,35.16-.33,3.65-1,7.27-1.28,10.93-.32,3.85-.26,7.73-.26,11.59,0,7.08-.2,14.15-.4,21.22a150.43,150.43,0,0,1-1.27,18.26c-.6,3.9-1.5,7.77-1.66,11.71-.08,1.86,0,3.72.1,5.57l.55,11.43a29.53,29.53,0,0,0,3.44-4.07,21.1,21.1,0,0,0,2.37-7.14c5.71-27.78,11.45-56,8.92-84.29a79.41,79.41,0,0,0,23.49-.75,45.13,45.13,0,0,0,1.35-11.4,129.25,129.25,0,0,1-19.65-18.48,3.66,3.66,0,0,0-3.45-1.69A56.73,56.73,0,0,1,243.52,94.16Z"/><polygon class="cls-2" points="218.13 115.84 219.19 123.28 229.34 125.17 241.21 126.48 242.85 126.48 243.26 119.27 231.72 118.54 218.13 115.84"/><polygon class="cls-2" points="212.6 84.56 211.57 89.12 211.57 92.02 214.47 91.19 219.86 91.61 229.49 93.16 260.46 95.23 275.27 95.02 282.94 95.65 284.49 92.02 285.32 88.5 261.81 86.12 244.72 84.46 233.53 83.73 226.17 83.01 220.58 83.11 212.6 84.56"/><path class="cls-2" d="M385.54,104.06l-.41,50.3.17,17.18.18,16.58.34,12.56.51,8.28.6,3.51,1.45,2.73,2.65,5,1.79,5.55.09,2.56,1.11-4-.17-4.36-.94-3.76-1.54-4.1s-.51-4.53-.71-5.17a413.93,413.93,0,0,0,3.6-52.65c0-8.5-.19-17.05,1-25.47,1.14-8,3.55-16,2.37-24a1.6,1.6,0,0,0-.38-1,1.68,1.68,0,0,0-1.12-.36A31.74,31.74,0,0,0,385.54,104.06Z"/><path class="cls-2" d="M416.41,128.56s-.69,7.09-1.08,7a135.74,135.74,0,0,1-20.75,3.06,5.88,5.88,0,0,1-2.86-.28c-1.72-.8-2.26-2.94-2.6-4.81-.43-2.32-.7-5.1,1.06-6.66A6.53,6.53,0,0,1,393,125.6a46.66,46.66,0,0,1,14.37-1.26,10.6,10.6,0,0,1,3.11.56,12.21,12.21,0,0,1,2.77,1.72A14.26,14.26,0,0,0,416.41,128.56Z"/><path class="cls-2" d="M358.69,126c2.78,2.18,1.13,7.61,4.2,9.35a8.33,8.33,0,0,0,3.11.67c1.57.22,3.08.78,4.65,1a24.07,24.07,0,0,0,5.69,0l7.46-.58a2,2,0,0,0,1.38-.48,2,2,0,0,0,.35-1.23l.31-5.82a.7.7,0,0,0-.07-.45.75.75,0,0,0-.62-.24l-18.41-1a19.76,19.76,0,0,1-4.41-.59A8.19,8.19,0,0,0,358.69,126Z"/><path class="cls-2" d="M353,92.47l-.79,6.16a17.34,17.34,0,0,0,.88,3.92l34.25,1.4c12.21.5,24.59,1,36.49-1.77l.09-3.94.2-2.74s-3.42-1.85-3.7-1.69a64.48,64.48,0,0,0-11.51-1.36c-1,0,1,.47,0,.46-1.51,0-3-.06-4.54-.07-8.5,0-17,.67-25.47,1.14a29.21,29.21,0,0,1-6.13-.11c-1.75-.27-3.44-.84-5.17-1.27A30.44,30.44,0,0,0,353,92.47Z"/><polygon class="cls-2" points="499.15 129.65 500.83 136.39 508.29 138.08 523.94 137.59 524.3 131.22 514.31 131.58 505.89 130.61 499.15 129.65"/><polygon class="cls-2" points="531.28 131.1 531.28 137.96 538.38 138.68 550.42 138.44 555.23 137.96 556.07 134.22 556.79 130.13 551.98 130.97 543.56 131.82 531.28 131.1"/><path class="cls-2" d="M493.25,104.26V97.4l5.54-.36,15.64.72,26.72.24h12.39l9.27-.72,2.05,1.92.24,3.13L564,105s-.24.84-.83.91c-8.72-.35-17.42.8-26.14,1.19-13.34.59-26.7-.59-40-1.78A7.35,7.35,0,0,1,493.25,104.26Z"/><path class="cls-2" d="M524.43,110.31c-1,9.8-2,19.63-1.84,29.48.14,8.25,1.11,16.48.75,24.72-.33,7.6-1.78,15.12-2.3,22.71s0,15.48,3.26,22.34c2.41,5,6.36,9.75,6,15.29,2.22-4.58,1.61-10,.46-14.95s-2.8-9.91-2.52-15c.22-3.89,1.57-7.61,2.6-11.37,6.58-24.07.12-49.67,1.8-74.57.06-1,.08-2.19-.71-2.83a2.9,2.9,0,0,0-1.47-.52,21.44,21.44,0,0,0-5.88-.06,1.63,1.63,0,0,0-1,.38,1.72,1.72,0,0,0-.29,1.32C523.36,109.33,523.58,111.39,524.43,110.31Z"/><polygon class="cls-2" points="664.28 108.09 665.84 134.34 665.98 154.06 663.99 170.95 662.43 185.28 664.7 195.5 666.55 206.14 666.4 215.65 665.27 219.9 663.85 223.59 663 227.42 661.58 229.41 667.26 224.87 673.36 215.79 673.92 201.03 675.06 190.81 675.34 172.37 677.61 152.79 676.62 133.35 677.47 116.03 677.61 108.37 664.28 108.09"/><polygon class="cls-2" points="697.05 132.92 695.49 139.31 683.15 140.3 674.35 141.01 672.36 134.2 679.6 131.93 689.25 131.22 697.05 132.92"/><path class="cls-2" d="M640.86,132.34l.75,7.76a3.42,3.42,0,0,0,.94,2.49,3.33,3.33,0,0,0,1.3.54l7.66,2c3,.78,6,1.57,9.12,1.21s6.17-2.1,7.21-5a9.87,9.87,0,0,0,.12-5.23,3.71,3.71,0,0,0-1-2.15c-.83-.73-2.07-.65-3.18-.59a32,32,0,0,1-8.62-.67c-2.38-.52-4.71-1.31-7.13-1.62A11.17,11.17,0,0,0,640.86,132.34Z"/><polygon class="cls-2" points="633.06 96.74 631.5 100.14 631.07 104.26 632.07 107.66 654.91 111.21 681.87 111.21 695.78 107.95 701.6 105.68 703.44 101.99 703.16 98.01 700.74 96.31 686.7 97.02 672.22 96.74 657.61 97.45 649.38 97.45 633.06 96.74"/><path class="cls-2" d="M834.22,128.33c-2.35,1.14-2.84,4.25-2.75,6.87a13.94,13.94,0,0,0,1.06,5.46,6.28,6.28,0,0,0,4.06,3.58,9.05,9.05,0,0,0,3.73-.17,74.55,74.55,0,0,0,15.7-4.93,2.35,2.35,0,0,0,1.15-.82,2.45,2.45,0,0,0,.19-1.54l-.58-6.31a1.85,1.85,0,0,0-.17-.7c-.35-.58-1.2-.52-1.87-.39a51.17,51.17,0,0,1-16.24.54,9,9,0,0,1-2-.41,9.68,9.68,0,0,1-1.35-.62A5.73,5.73,0,0,1,834.22,128.33Z"/><path class="cls-2" d="M800,128a31.41,31.41,0,0,0,.83,7.56,10.69,10.69,0,0,0,4.16,6.2,11.19,11.19,0,0,0,3.77,1.47,19.11,19.11,0,0,0,12.92-1.8,9.81,9.81,0,0,0,2.9-2.2,13.11,13.11,0,0,0,2.22-4.8l1.12-3.69c.32-1,.58-2.35-.23-3.09a2.8,2.8,0,0,0-1.62-.55c-6.74-.67-13.44,1.8-20.2,1.52C803.92,128.55,802,128.25,800,128Z"/><path class="cls-2" d="M825.69,103.2c-1.68,13-1.39,26.21-1.1,39.33l.56,24.57c.28,12.52.56,25,1.26,37.53.18,3.16.43,6.47,2.13,9.14,1.29,2,3.37,3.61,4.09,5.91,1,3-.77,6.23-2.26,9.07s-2.74,6.43-1,9.11l3.15-7.3c1.47-3.42,3-7.05,2.52-10.74a27.48,27.48,0,0,0-.92-3.89c-3.88-14.15-.74-29.12.22-43.76,1.4-21.41-1.94-43.09,1.43-64.28a2.77,2.77,0,0,0-.31-2.32,2.71,2.71,0,0,0-1.62-.66A68.72,68.72,0,0,1,825.69,103.2Z"/><path class="cls-2" d="M795.54,98.84a18.39,18.39,0,0,0,.29,6,4.61,4.61,0,0,0,1.36,2.7,5.14,5.14,0,0,0,2,.85c16.64,4.13,34.09,2.63,51.15,1,3.42-.32,6.93-.68,10-2.22,1.6-.81,3.55-1.93,5-.9a18.28,18.28,0,0,0,1-7.22l-25.35-1.14-14.56-.09-11.5.45-10.94.23Z"/><path class="cls-2" d="M987.44,102.09c-3.09,17.11,2.66,34.59,2.09,52-.3,9.05-2.31,18-2.6,27-.34,10.42,1.6,20.89.27,31.22a30.15,30.15,0,0,0-.49,5.76,23.57,23.57,0,0,0,2.45,8l3.9,8.8c1.48-2.67.38-6-1-8.71s-3.13-5.51-2.84-8.55,2.7-5.66,4.22-8.46a28.69,28.69,0,0,0,2.7-9.48c2.13-13.94,2.14-28.1,2.15-42.2,0-14.43,0-28.87-.22-43.3-.06-3.59-.15-7.25-1.36-10.63a3.51,3.51,0,0,0-1.8-2.29,3.77,3.77,0,0,0-1.86,0C991.11,101.54,989.18,101.84,987.44,102.09Z"/><path class="cls-2" d="M1024.14,123.22a50.29,50.29,0,0,1-2.89,13.82,3.83,3.83,0,0,1-1.1,1.81,4.1,4.1,0,0,1-1.42.56,125.44,125.44,0,0,1-19.45,3.2c-1.43.12-3.12.1-3.95-1.06a4.15,4.15,0,0,1-.59-1.72,65.5,65.5,0,0,1-1-9.78c0-1.85,0-3.87,1.26-5.26,1.76-2,4.94-1.73,7.5-1,4.44,1.25,9,3.36,13.47,2C1018.43,125.07,1020.73,123.27,1024.14,123.22Z"/><path class="cls-2" d="M964.64,124.3l-.64,8.38c-.2,2.63-.17,5.77,2,7.28a7.11,7.11,0,0,0,3,1,68.87,68.87,0,0,0,17.62.65,4.91,4.91,0,0,0,3.46-1.31,5.12,5.12,0,0,0,.85-3.09l.31-6.17a5.71,5.71,0,0,0-.32-2.79,4.72,4.72,0,0,0-2.32-2c-4.5-2.19-9.78-1.72-14.76-1.19l-8.3.87C965.27,125.46,965,125,964.64,124.3Z"/><path class="cls-2" d="M955.22,96.79c-1.71,1.73-1,4.86.91,6.43s4.4,2,6.8,2.35c3.23.49,6.46,1,9.71,1.24,9.87.79,19.82-.49,29.71.22,4.35.31,8.73,1,13,.4a43.62,43.62,0,0,0,7.83-2.13A9.48,9.48,0,0,0,1026,104c2.13-1.64,2.46-4.68,2.62-7.36A632.51,632.51,0,0,0,955.22,96.79Z"/><path class="cls-2" d="M1153.53,102.42c1.21,5.63.07,11.46-.38,17.2a158.78,158.78,0,0,0,.15,19.51,492.7,492.7,0,0,1-.47,56.35,48.61,48.61,0,0,0,0,10.58c1.23,8.29,6.93,15.27,13.35,20.66a65.1,65.1,0,0,1-5.39-31.21c1-13.48,6.26-26.72,4.71-40.15-.78-6.7-3.23-13.19-3.37-19.94-.19-9.42,4.14-18.37,5-27.76a6.06,6.06,0,0,0-.43-3.51c-1.34-2.4-4.81-2.15-7.49-1.57l-5.44,1.17c-.23,0-.54.08-.66-.13S1153.43,103.18,1153.53,102.42Z"/><path class="cls-2" d="M1129.2,129l2.42,8.91a4.89,4.89,0,0,0,.93,2.09,4.7,4.7,0,0,0,2,1.15,90.71,90.71,0,0,0,38.33,5.1c4.3-.36,9-1.26,11.67-4.65,2.16-2.73,2.47-6.44,2.7-9.91a4.46,4.46,0,0,0-.35-2.59c-.77-1.27-2.51-1.43-4-1.44C1165.14,127.51,1147.32,128.09,1129.2,129Z"/><path class="cls-2" d="M1124.44,94.54c-.93,3-1.5,6.33,0,9s5,4.05,8.18,4.73c10,2.13,20.38,1.06,30.47-.54a47.48,47.48,0,0,1,9.71-.93c3.4.16,6.71,1.11,10.1,1.41a27.06,27.06,0,0,0,10.83-1.26,6.9,6.9,0,0,0,2.46-1.25,6,6,0,0,0,1.7-3.48,11.54,11.54,0,0,0-.78-6.54,2,2,0,0,0-.77-1,2.24,2.24,0,0,0-1.15-.14,514.75,514.75,0,0,1-59.83-.24C1131.56,94.06,1127.68,93.79,1124.44,94.54Z"/><path class="cls-2" d="M1299.91,101.5c-1.67,15.24,2.08,30.62,1.14,45.93-.69,11.25-3.9,22.62-1.5,33.64.83,3.78,2.3,7.43,2.75,11.27,1.17,10-4.73,20.65-.9,30A180.12,180.12,0,0,0,1312.31,192a72.08,72.08,0,0,0,2.69-16.2,127,127,0,0,0-.89-14.18c-1.45-16.82-.23-33.8-2.1-50.58-.4-3.5-1.17-7.41-4.09-9.39A7.81,7.81,0,0,0,1299.91,101.5Z"/><path class="cls-2" d="M1274.9,126.37a54.67,54.67,0,0,0,.65,6.39c.34,2.15.87,4.39,2.37,6a12.06,12.06,0,0,0,5,2.64c4.38,1.46,8.89,2.87,13.5,2.67a4.23,4.23,0,0,0,1.76-.35,4.71,4.71,0,0,0,1.89-2.39,88.11,88.11,0,0,0,5.26-14,1.44,1.44,0,0,0,0-1.1,1.42,1.42,0,0,0-1.1-.5C1294.57,124.52,1284.75,128.05,1274.9,126.37Z"/><path class="cls-2" d="M1308.4,126.44a82.8,82.8,0,0,0-.79,11.88c0,.79.1,1.72.8,2.09a2.12,2.12,0,0,0,1,.18c5.56.07,11.22.13,16.53-1.51,2-.62,4.06-1.57,5.19-3.34a10.91,10.91,0,0,0,1.18-3l2.32-8.49C1324.74,123.28,1314.64,124.33,1308.4,126.44Z"/><path class="cls-2" d="M1266.7,95.84c-1.37,2.37-.5,5.56,1.41,7.53s4.6,3,7.26,3.64c16.17,4.09,33.14-1.22,49.81-.9a29.43,29.43,0,0,0,6.9-.29,24.73,24.73,0,0,0,6-2.48,4.32,4.32,0,0,0,1.8-1.4,3.83,3.83,0,0,0,.44-1.44,20.25,20.25,0,0,0,0-6.07A667.2,667.2,0,0,1,1266.7,95.84Z"/><path class="cls-2" d="M1440.12,99.83a143.73,143.73,0,0,1,5.84,45.91c-.59,16.76-4.11,33.64-1.25,50.16.53,3.06,1.28,6.17.83,9.24-.41,2.71-1.72,5.19-2.46,7.83a19,19,0,0,0,.65,12.09c.15-5.31,3.56-9.87,5.66-14.73,2.8-6.45,3.34-13.62,3.74-20.64,1.52-26.32,1.66-52.71,1.29-79.08-.07-5.42-.7-11.79-5.37-14.54C1445,93.66,1439,96,1440.12,99.83Z"/><path class="cls-2" d="M1450,121.25l1.49,15.23c.07.71.45,1.65,1.14,1.48a1.58,1.58,0,0,0,.67-.54,6.53,6.53,0,0,1,4.43-1.69,24.37,24.37,0,0,1,6.55.37,10.64,10.64,0,0,0,4.18.39,9,9,0,0,0,2.27-.93l3.2-1.68a3.84,3.84,0,0,0,1.27-.91,3.65,3.65,0,0,0,.55-1.24l3-9.77C1469.78,124.38,1460.45,125.46,1450,121.25Z"/><path class="cls-2" d="M1419.8,123.83A16.07,16.07,0,0,0,1423,136.1a1.72,1.72,0,0,0,.67.59,2,2,0,0,0,1.06,0c2.75-.42,5.53.2,8.28.53a80.91,80.91,0,0,0,12.06.24,1.44,1.44,0,0,0,1.7-1.76l.2-9.45a1.41,1.41,0,0,0-.24-1,1.24,1.24,0,0,0-.6-.31c-5.53-1.76-11.47-1.49-17.26-1.2A71.48,71.48,0,0,1,1419.8,123.83Z"/><path class="cls-2" d="M1412.27,93.12c-.64,2.9-1,6.52,1.34,8.32a7.4,7.4,0,0,0,2.57,1.08c7.4,1.94,15.15,2,22.8,2a115.31,115.31,0,0,0,14.52-.61,48.47,48.47,0,0,1,9-.84c3.84.23,7.72,1.75,11.46.82,1.6-.4,3.08-1.24,4.69-1.61s3.29-.29,4.71-1a6,6,0,0,0,2.81-5,17.69,17.69,0,0,0-1-5.91,26.53,26.53,0,0,0-10.5-.42l-7.88.89-12,.41-12.06-.62-10.22-.3-8-.31-4.8.2-2.76.31"/><path class="cls-2" d="M1585.65,90.68a69.51,69.51,0,0,1,3.69,12.37c3.4,16.9.5,34.36,1.11,51.58A126,126,0,0,0,1595,183.9a61.56,61.56,0,0,1,2.38,10.22c.25,2.51.12,5,.34,7.55.47,5.44,2.55,10.62,4.87,15.57a2,2,0,0,0,.82,1.06c.77.39,2.3.47,1.83,1.19-.61-4.77,1.15-9.53,1.08-14.33-.06-3.7-1.19-7.28-2-10.89-3.33-14.78-1.29-30.19-2.14-45.32-.55-10-2.37-19.88-2.53-29.88-.15-9.52,1.21-19.07.28-28.55a3.71,3.71,0,0,0-.55-1.86,3.5,3.5,0,0,0-2.77-1.06C1592.5,87.38,1588.36,88.24,1585.65,90.68Z"/><path class="cls-2" d="M1563.65,115.16c.85,5.89,2.2,12.58,7.33,15.58a19.29,19.29,0,0,0,7.1,2c12.77,1.86,26.49,2.75,37.94-3.21a12.8,12.8,0,0,0,5.06-4.13,15.63,15.63,0,0,0,1.73-4.67l2.56-10.1-15.76,1-45,2.95C1564.11,114.66,1564,115.62,1563.65,115.16Z"/><path class="cls-2" d="M1555.19,86.82a17.16,17.16,0,0,1,1.35,4.56c.41,1.54,1.26,3.16,2.78,3.63,1.15.35,2.39,0,3.59-.07,2.18-.06,4.21,1,6.33,1.59a21.48,21.48,0,0,0,5.66.5c9-.1,17.94-1.6,26.94-1.51a65.47,65.47,0,0,0,9-.14c7-.9,13.42-5,20.42-4.6a18.06,18.06,0,0,0-.25-6.47,2.38,2.38,0,0,0-.52-1.15,2.31,2.31,0,0,0-1-.51c-4.74-1.44-9.8-1.29-14.75-1s-9.78.7-14.67,1.12C1585.14,84,1570.25,85.3,1555.19,86.82Z"/><path class="cls-2" d="M212.87,84.65c-2.5,3.18-1.15,8.22,2,10.75s7.51,3,11.54,2.69,8-1.37,12-1.5c5.88-.18,11.63,1.58,17.46,2.42a56.38,56.38,0,0,0,23.22-1.54,6.48,6.48,0,0,0,3-1.51,6.89,6.89,0,0,0,1.37-2.56c.59-1.62,1.18-3.23,1.94-4.82L223.77,82.9C219.92,82.55,215,82,212.87,84.65Z"/><path class="cls-2" d="M288.79,55.38c-.25,12.48-1.87,24.9-3.5,37.28-.19,1.46-.57,3.16-1.92,3.74"/><polygon class="cls-3" points="502.09 145.12 502.73 148.39 503.05 152.22 504.09 157.41 505.13 162.28 514.54 191.18 517.54 197.69 519.78 203.67 522.57 208.46 523.23 209.51 524.04 210.8 524.89 212.14 524.49 207.35 523.29 204.23 522.03 198.48 522.17 194.09 524.14 181.33 524.25 177.41 523.93 172.62 523.85 137.89 521.93 137.49 518.9 138.21 515.39 138.53 512.35 137.97 509.56 137.97 507.32 137.97 504.53 137.73 502.53 137.41 501.06 137.92 501.74 141.01 502.09 145.12"/><polygon class="cls-3" points="531.4 138.24 531.59 144.2 531.51 151.86 531.43 158.25 531.03 164.48 531.51 170.3 531.03 177.57 530.08 184.35 529.28 189.78 528.32 193.46 528.08 197.93 528.64 202.88 529.44 207.35 530.63 211.5 530.87 214.61 531.35 218.04 530.95 221.72 530.39 223.71 530.47 227.06 530.89 230.43 531.11 232.18 533.03 227.7 533.91 223.95 534.55 220.12 534.39 214.77 533.67 209.02 532.95 204.63 533.59 200.32 534.78 195.29 536.22 191.94 541.59 182.2 544.84 176.77 547.8 171.02 550.43 163.28 551.31 157.21 552.11 150.51 553.55 145.16 554.98 141.09 555.62 138.37 551.47 138.53 545.64 138.93 537.74 138.69 531.4 138.24"/><polygon class="cls-3" points="531.47 106.12 531.23 131.27 536.98 131.91 543.13 131.82 548.88 131.19 556.38 130.55 556.94 127.83 558.38 121.85 561.17 115.22 563.96 107.16 564.44 105.48 558.54 106.2 531.47 106.12"/><polygon class="cls-3" points="524.13 106.04 523.73 131.59 518.3 131.75 511.99 131.66 507.76 131.27 504.49 130.87 501.14 130.31 499.14 129.11 498.1 125.68 496.82 121.21 495.31 115.94 494.11 111.39 493.47 107.16 493.07 104.12 524.13 106.04"/><polygon class="cls-3" points="361.09 134.38 363.38 145.04 367.27 161.08 371.74 175.4 376.1 188.91 380.22 200.37 383.66 207.59 386.98 211.71 385.49 191.43 385.6 170.93 385.26 152.14 385.14 143.21 385.14 135.3 361.09 134.38"/><polygon class="cls-3" points="392.02 135.41 391.79 145.15 391.56 158.44 391.56 168.18 391.56 178.83 392.02 186.62 391.9 193.72 391.68 200.48 391.22 205.41 391.33 209.88 392.36 213.77 394.08 218.47 394.2 223.28 395.46 220.53 394.2 214.46 393.85 210.79 394.88 206.21 398.55 196.02 404.39 180.78 408.74 164.86 412.52 149.96 415.16 138.85 415.73 135.64 392.02 135.41"/><polygon class="cls-3" points="394.31 103.57 393.16 108.95 392.82 115.02 392.48 120.75 392.13 126.14 392.36 129.46 396.03 129.34 400.73 129 405.54 128.43 409.32 128.77 413.21 128.88 416.08 128.66 416.76 125.11 418.37 119.26 420.54 113.99 422.38 109.75 423.18 106.2 423.98 102.88 417.68 102.88 412.64 103.8 406.57 104.03 401.41 104.03 394.31 103.57"/><polygon class="cls-3" points="352.84 102.19 353.07 106.43 354.9 111.7 356.74 117.31 358.22 122.47 359.49 126.71 363.61 127.51 369.22 128.2 374.83 128.77 379.42 128.88 382.97 129.11 385.14 128.54 385.38 124.88 385.72 120.18 385.95 115.02 386.06 109.64 386.06 106.2 386.29 103.34 377.81 102.77 370.25 102.65 364.52 102.42 359.37 102.31 352.84 102.19"/><polygon class="cls-3" points="211.55 92.12 211.99 96.35 213.29 101.24 215.24 105.58 216.98 110.57 217.74 114.58 218.39 115.88 224.25 117.4 230.97 118.81 236.62 119.25 242.15 119.57 243.12 118.27 243.45 112.52 243.99 107.53 243.88 102.32 244.32 98.2 244.43 95.27 244.32 94.62 237.92 94.29 232.28 93.42 228.04 92.99 224.57 92.34 220.56 91.58 217.52 91.58 211.55 92.12"/><polygon class="cls-3" points="252.21 94.92 251.59 99.72 251.15 105.79 251.26 111.44 250.94 116.64 250.83 119.79 255.06 120.55 260.59 120.87 265.58 120.77 270.79 120.33 274.91 119.68 276.65 119.25 277.84 115.45 279.69 108.83 281.1 103.62 282.18 100.15 283.05 97 283.7 94.94 281.31 94.94 275.56 94.73 268.95 95.05 262.55 94.94 257.01 94.94 252.21 94.92"/><polygon class="cls-3" points="250.45 127.08 249.74 137.8 249.53 148.97 248.44 161.13 247.46 172.84 246.6 181.63 246.27 188.25 245.94 193.13 244.97 196.82 242.91 200.94 241.93 206.26 241.93 212.44 241.17 216.78 240.41 219.17 243.45 217.22 245.08 214.07 245.94 208.86 246.6 203.55 248.44 199.1 251.59 194.11 254.3 189.66 256.36 183.37 258.96 174.47 261.89 168.5 264.82 163.08 268.19 153.31 270.36 144.31 271.77 138.56 273.18 132.59 274.37 128.36 275.13 125.97 272.31 126.41 266.45 127.71 261.57 127.6 257.23 127.71 254.08 127.17 250.45 127.08"/><polyline class="cls-3" points="219.36 122.94 219.47 129.77 220.78 137.47 222.62 145.72 225.11 156.24 226.74 164.27 229.02 173.49 231.19 181.85 232.93 188.57 235.31 194.76 236.07 200.83 236.07 206.15 238.24 203.76 240.09 199.86 240.41 195.3 240.3 190.64 240.19 185.21 240.09 177.83 240.63 168.83 241.06 158.2 241.28 149.08 241.71 141.81 242.15 136.06 242.37 130.75 242.91 127.6 242.58 125.76 237.05 125.43 231.95 125.32 226.96 124.89"/><polygon class="cls-3" points="672.66 107.88 672.72 112.78 672.85 117.88 672.97 123.59 673.28 128.74 673.42 132.48 673.26 134.39 674.68 135.15 677.12 134.91 680.37 134.69 683.23 134.25 686.8 134.61 690.78 134.18 693.6 133.62 696.54 133.25 697.36 132.75 698 128.88 699.7 120.4 701 113.53 701.91 109.04 702.75 105.31 698.36 105.86 691.11 106.55 684.76 107.38 679.52 107.78 672.66 107.88"/><polygon class="cls-3" points="631.76 107.05 632.43 109.83 633.88 113.75 635.53 117.07 636.72 119.33 638.27 122.67 639.54 126.42 640.4 129.41 640.64 132.37 641.06 133.53 642.88 133.87 645.68 134.18 649.22 135.08 653.02 135.2 656.57 135.37 660.89 135.5 664.64 135.38 666.04 135.38 665.78 130.35 665.25 124.14 665.1 118.83 664.79 114.96 664.49 111.91 664.21 108.75 661.6 108.61 655.13 108.05 649.14 108.13 643.5 107.88 638.28 107.35 634.55 107.05 631.76 107.05"/><polygon class="cls-3" points="641.47 140.46 642.26 146.33 642.4 151.59 643.14 157.12 644.08 161.57 645 166.51 646.88 173.06 648.84 179.15 650.32 182.94 652.11 187.5 655.02 192.7 657.21 197.3 659.96 202.24 662.17 207.56 663.9 213.58 664.36 218.45 664.15 221.55 663.86 222.66 665.09 221.54 666.21 220.05 667.06 217.45 667.32 213.45 667.5 208.69 667.61 203.27 667.41 198.02 666.54 190.9 665.26 184.62 664.25 179.75 664.51 174.25 665.88 170.54 666.78 163.37 667.19 157.17 667.26 152.15 666.94 147.43 666.6 143.76 666.45 141.79 660.41 141.91 654.94 141.53 651.43 141.51 648.31 140.87 645.4 140.79 641.47 140.46"/><polygon class="cls-3" points="673.83 141.25 673.78 146.95 674.35 154.46 674.58 161.98 674.31 168.27 673.85 172.33 673.01 177.01 672.49 181.08 672.49 185.55 673.03 189.98 673.43 194.82 673.6 199.87 673.52 205.4 673.15 210.55 673.21 213.85 673.08 215.86 674.89 213.37 676.51 209.93 678.44 205.15 679.66 201.28 680.43 197.11 681.15 194.16 681.74 189.3 682.37 184.33 683.5 180.59 685.52 176.9 688.19 171.38 690.4 165.73 692.11 159.73 693.37 154.31 694.4 147.99 695.35 143.89 695.87 140.7 696.05 139.29 691.78 139.8 687.25 140.64 682.85 141.07 679.04 141.34 673.83 141.25"/><polygon class="cls-3" points="796.25 105.82 796.77 111.54 797.9 119.16 799.02 125.48 800.06 129.29 804.57 130.07 808.29 130.24 813.05 130.33 818.25 130.07 822.41 129.98 826.31 129.98 826.91 129.12 827.35 125.39 827.52 118.55 827.61 112.92 827.78 109.28 827.95 106.25 819.64 106.25 809.68 105.82 802.49 105.91 796.25 105.82"/><polygon class="cls-3" points="801.36 136.31 802.23 140.72 803.18 147.31 804.91 152.76 806.13 158.04 807.69 163.41 809.16 169.13 810.72 174.76 812.71 180.74 814.61 185.76 816.52 190.96 818.51 195.28 820.85 200.13 823.1 204.38 825.27 208.36 827.87 212 828.04 209.49 828.04 205.68 827.35 192.95 827.09 180.74 826.91 166.97 826.83 156.49 826.83 145.57 826.74 137.87 827 137.09 824.83 137.43 819.12 137.43 814.18 137.26 810.28 137.43 807.17 136.91 801.36 136.31"/><polygon class="cls-3" points="833.62 138.08 833.37 147.87 833.8 156.27 833.62 165.1 833.37 175.58 833.28 186.41 832.85 194.9 832.76 202.78 832.67 208.32 833.11 213.08 834.14 216.81 835.53 220.53 835.88 221.74 836.48 219.41 836.91 214.64 837.35 208.75 837.7 205.72 839.17 201.65 840.47 197.23 842.72 192.04 846.1 183.9 848.61 175.93 850.69 169.35 853.02 160.34 855.1 152.54 856.32 146.74 857.36 141.72 857.87 137.39 852.68 136.96 846.79 137.47 841.42 137.82 833.62 138.08"/><polygon class="cls-3" points="834.75 106.67 834.75 117.68 834.18 126.99 834.18 130.77 837.83 130.77 845.57 130.71 853 130.58 856.96 130.33 857.22 127.25 857.53 123.66 858.91 119.25 861.18 115.48 863.45 111.32 865.46 107.86 866.28 105.34 861.5 105.91 834.75 106.67"/><polygon class="cls-3" points="963.45 134.83 964.71 142.57 966.69 151.04 969.21 159.5 971.64 168.5 974.34 176.52 976.95 184.26 980.01 190.83 983.34 198.12 984.87 204.88 985.23 210.73 985.77 215.23 986.31 217.84 987.66 215.95 989.19 211 989.73 206.86 989.82 202.71 989.46 187.41 988.92 161.3 988.56 136.18 977.76 136 969.84 135.73 963.45 134.83"/><polygon class="cls-3" points="995.68 135.67 995.74 169.17 995.33 185.58 994.05 203.94 993.77 208.95 995.15 207.75 1004.32 191.95 1009.15 180.04 1014.08 165.1 1020.25 142.77 1022.14 134.83 1015.85 134.83 1010.71 135.67 1005.68 135.67 999.77 136.23 995.68 135.67"/><polygon class="cls-3" points="994.78 103.32 995.77 126.91 1002.7 127.72 1009.36 127.72 1015.57 127.36 1019.89 126.73 1023.4 126.19 1024.76 122.77 1026.56 113.22 1028.18 103.23 1012.78 103.32 994.78 103.32"/><polygon class="cls-3" points="987.93 103.41 988.29 128.08 964.8 126.55 964.43 122.59 963 117.82 960.47 113.04 957.77 108.72 955.88 106.02 955.43 103.23 969.12 103.77 980.28 103.41 987.93 103.41"/><polygon class="cls-3" points="1130.89 136.27 1132.76 144.84 1133.83 152.06 1135.61 159.47 1138.29 167.05 1141.59 173.03 1144.27 178.29 1145.61 185.16 1146.68 191.85 1148.28 198.45 1151.32 206.57 1154.44 212.55 1154.97 210.05 1154.35 202.91 1154.26 195.69 1155.06 188.55 1155.6 181.59 1154.88 174.01 1153.63 167.85 1153.46 162.05 1153.63 152.33 1154.08 139.22 1149.44 138.77 1142.84 137.88 1138.38 137.7 1130.89 136.27"/><polygon class="cls-3" points="1161.58 138.86 1160.95 145.01 1160.59 151.08 1160.77 158.22 1161.58 163.84 1162.82 169.1 1163.89 174.36 1162.82 181.68 1162.02 186.68 1161.22 192.92 1160.68 198.99 1160.33 204.16 1160.68 209.51 1161.22 214.24 1162.2 217.01 1163.63 218.61 1163.63 212.99 1164.7 208.44 1167.19 202.2 1170.94 194.79 1175.13 187.03 1178.97 178.65 1182.45 167.76 1184.59 159.47 1186.02 152.69 1186.73 146.26 1187 141 1187.36 137.88 1183.16 137.79 1177.28 138.86 1170.5 138.95 1165.86 139.66 1161.58 138.86"/><polygon class="cls-3" points="1164.17 105.72 1162.26 132.38 1170.47 132.88 1181 132.24 1187.72 131.81 1188.92 125.52 1191.04 119.23 1194.01 113.71 1196.7 107.98 1197.76 104.03 1187.51 105.3 1178.03 105.44 1171.32 105.65 1164.17 105.72"/><polygon class="cls-3" points="1124.11 102.54 1127.02 116.58 1129.4 127.94 1129.86 131.01 1136 132.24 1140.99 132.85 1143.98 132.77 1147.21 132.85 1151.04 133.16 1154.27 132.7 1155.57 105.38 1146.44 104.76 1134.47 104 1124.11 102.54"/><polygon class="cls-3" points="1275.94 135.1 1278.19 142.81 1279.72 148.27 1280.84 154.37 1281.48 160.47 1283.89 166.74 1287.03 173.32 1290.56 178.94 1295.62 187.86 1297.87 193.48 1298.91 198.94 1298.83 204.88 1297.79 210.99 1297.71 216.45 1298.67 221.43 1299.47 224.64 1301 228.97 1301.64 226.49 1302.2 220.78 1301.24 215.97 1301.88 209.86 1304.13 200.31 1304.69 193.48 1303.81 187.38 1302.12 182 1301.48 169.79 1301.64 169.79 1301.4 163.37 1301.24 153.33 1301.24 144.57 1301.32 135.18 1293.45 135.58 1285.18 135.98 1275.94 135.1"/><polygon class="cls-3" points="1308.63 134.29 1308.47 161.44 1308.79 177.1 1309.59 185.13 1310.48 190.99 1310.64 196.29 1309.27 201.83 1307.83 206.57 1307.18 209.54 1311.44 202.47 1316.42 192.44 1321.08 181.35 1324.21 171.96 1327.5 161.04 1329.59 151.48 1330.95 142.89 1332.4 134.78 1332.56 133.09 1330.55 134.62 1326.62 135.34 1320.59 135.5 1314.41 135.42 1308.63 134.29"/><polygon class="cls-3" points="1308.39 103.3 1308.71 129.15 1313.69 129.07 1320.84 128.67 1327.26 128.03 1333.85 127.31 1336.41 120.32 1338.58 112.85 1340.27 106.03 1340.59 101.61 1331.44 102.65 1318.91 103.46 1308.39 103.3"/><polygon class="cls-3" points="1267.25 103.31 1269.49 110.21 1272.42 117.17 1274.07 122.57 1275.26 127.88 1279.93 128.8 1286.07 129.35 1293.12 129.16 1300.71 128.98 1301.26 125.32 1301.26 118.91 1301.36 109.21 1301.36 103.53 1286.07 103.71 1274.9 103.8 1267.25 103.31"/><polygon class="cls-3" points="1412.07 99.91 1413.22 104.42 1415.34 110.47 1418.22 116.43 1419.56 121.81 1419.75 126.22 1424.08 125.84 1430.89 125.94 1437.04 125.94 1443.09 126.8 1444.72 126.8 1444.53 120.94 1444.72 113.74 1444.44 107.78 1443.57 103.27 1443.19 101.16 1434.54 101.35 1420.23 101.06 1412.07 99.91"/><polygon class="cls-3" points="1451.35 101.25 1451.73 111.91 1452.02 122.38 1452.21 126.32 1459.23 126.32 1468.35 126.03 1475.65 125.36 1478.63 124.59 1480.45 118.54 1482.76 111.43 1484.96 104.61 1485.92 99.14 1477.28 99.33 1463.84 100.29 1451.35 101.25"/><polygon class="cls-3" points="1452.5 132.18 1452.02 173.28 1451.26 195.95 1450.77 205.45 1449.91 209.49 1453.56 205.07 1457.59 196.33 1462.59 182.5 1468.64 164.16 1473.54 146.97 1476.8 131.79 1473.15 131.79 1466.91 132.47 1460.09 132.18 1452.5 132.18"/><polygon class="cls-3" points="1420.23 132.08 1425.23 152.73 1430.22 170.5 1435.31 185.96 1439.06 194.79 1442.52 203.25 1442.99 208.53 1442.23 213.43 1441.17 216.79 1442.13 220.15 1443.48 222.55 1442.99 217.84 1443.76 213.81 1444.82 209.97 1446.07 206.22 1445.88 201.61 1445.4 192.87 1445.2 182.88 1445.2 171.07 1445.3 157.44 1445.4 145.91 1445.3 137.75 1445.11 133.14 1442.23 132.85 1433.68 132.95 1426.29 132.37 1420.23 132.08"/><polygon class="cls-3" points="1565.79 123.7 1569.89 138.01 1572.1 147.83 1573.85 154.77 1576.94 161.77 1580.31 166.88 1583.41 173.28 1584.54 178.44 1585.69 182.9 1587.31 187.28 1589.74 190.79 1592.57 194.77 1594.93 198.89 1596.01 203.41 1596.01 207.53 1596.48 210.63 1597.9 213.19 1599.79 214.75 1601.88 216.77 1602.02 215.56 1601.21 212.25 1600.47 206.58 1600.26 202.26 1599.66 198.89 1597.7 195.18 1596.08 191.33 1595.74 185.06 1594.93 172.37 1593.92 160.76 1592.71 148.15 1592.03 137.82 1591.69 128.98 1591.42 123.78 1587.64 124.59 1580.76 124.66 1573.74 124.39 1569.09 123.92 1565.79 123.7"/><polygon class="cls-3" points="1599.62 123.55 1601.51 160.73 1601.78 168.15 1602.25 178.27 1602.25 185.16 1601.65 189.95 1601.71 193.86 1602.52 198.11 1604.41 201.76 1606.17 205.74 1606.24 201.28 1606.44 195.08 1608.39 188.4 1610.89 181.04 1614.27 168.96 1617.1 157.36 1620.47 142.98 1622.57 130.77 1623.24 124.22 1623.71 120.44 1618.04 121.19 1611.43 122.4 1606.1 122.94 1599.62 123.55"/><polygon class="cls-3" points="1597.67 91.99 1598.92 117.01 1607.06 116.39 1613.8 115.28 1619.36 114.44 1623.95 113.89 1624.92 113.05 1625.68 109.37 1627.49 104.5 1629.23 100.68 1630.41 96.86 1631.11 93.52 1631.24 90.32 1631.52 89.35 1628.33 88.79 1624.02 88.79 1619.64 89.56 1613.8 90.6 1606.92 91.64 1597.67 91.99"/><polygon class="cls-3" points="1557.08 93.19 1564.07 116.75 1571.09 117.83 1576.61 118.16 1582.83 118.14 1587.66 117.93 1590.96 117.62 1590.77 109.1 1590.7 101.15 1590.42 96.26 1589.51 92.71 1581.01 92.17 1573 92.39 1565.9 92.11 1561.51 92.5 1557.08 93.19"/><polygon class="cls-2" points="212.64 84.61 211.84 88.96 211.8 91.88 214.97 91.11 220.72 91.5 226.09 92.47 231.46 93.4 236.87 93.86 242.87 94.03 255.91 94.62 265.94 94.52 272.16 94.58 277.69 94.64 282.05 95.39 283.35 95.64 284.47 91.53 285.66 88.17 261.8 85.87 233.74 83.82 227.09 83.13 222.86 82.82 218.63 83.01 215.83 83.38 212.64 84.61"/><path class="cls-1" d="M857.52,123.49c1.84-8.66,11.15-15.84,8.94-24.41a648.58,648.58,0,0,0-69.3-.24,9.26,9.26,0,0,0-2,.35c0,.19-.05.39-.08.58a420.61,420.61,0,0,0,14.75,71.52c4.46,14.87,9.84,29.7,18.8,42.43,2,2.86,4.29,5.92,4.09,9.39-.31,5.33-6.32,10.67-3.21,15,3.08-6.48,6.21-13.11,7-20.22.45-3.79.23-7.65.87-11.41.89-5.3,3.4-10.16,5.57-15.09,5.7-12.94,9.1-26.74,12.48-40.46,1.12-4.54,2.24-9.14,2.22-13.81S856.58,128,857.52,123.49Z"/><path class="cls-1" d="M795.42,105.52l10,.2c20.36.4,40.72.81,61.07.06"/><path class="cls-1" d="M827.78,105.86a1029.34,1029.34,0,0,0,.54,107.43"/><path class="cls-1" d="M834.44,106.38,832.76,199c-.15,8.2-.61,15.27,3.21,22.56"/><path class="cls-1" d="M834,131.19c7.46-.45,16-.34,23.42-.79"/><path class="cls-1" d="M799.69,129.1a87.06,87.06,0,0,0,25.24.87c.59-.07,1.18-.13,1.76-.21.18,0,.07.67.24.64"/><path class="cls-1" d="M800.79,136.2a134.4,134.4,0,0,0,25.51,1.1"/><path class="cls-1" d="M632.75,96.84c-5.4,7.61,1.78,17.37,5.33,26s3.24,18.11,4,27.33A113.7,113.7,0,0,0,654,191.58c3.76,7.4,8.39,14.56,10,22.69s-.9,17.79-8.28,21.69a63.84,63.84,0,0,0,24.94-40.36c.82-4.86,1.07-9.87,2.73-14.52,1.44-4.05,3.89-7.67,5.66-11.6,2.42-5.38,3.53-11.23,4.62-17L703,102.8c.4-2.14.51-4.89-1.44-5.88a5.27,5.27,0,0,0-2.5-.35C676.16,97.17,653.3,97.76,632.75,96.84Z"/><path class="cls-1" d="M631.25,106.89a313.78,313.78,0,0,0,71.24-1.53"/><path class="cls-1" d="M664.3,108.2c.76,11.58,1.51,23.84,2.27,35.41.56,8.47,1.1,17.06-.63,25.37-.68,3.25-1.7,6.46-1.7,9.78a37.76,37.76,0,0,0,1.07,7.38,105.93,105.93,0,0,1,1.85,28.2c-.22,3.22-.36,6.31-3,8.21"/><path class="cls-1" d="M672.41,108c.66,17.84,1.29,36.26,1.86,54.1a52.54,52.54,0,0,1-.15,8.13c-.36,3-1.23,5.95-1.59,9-.59,5,.25,10,.68,15a100,100,0,0,1-.57,23"/><path class="cls-1" d="M640.36,133.57a100.79,100.79,0,0,0,26.23,1.65"/><path class="cls-1" d="M673.34,134.43c2.3,1.13,5,.21,7.57-.06a42.3,42.3,0,0,1,5.4,0,50.1,50.1,0,0,0,11-1.27"/><path class="cls-1" d="M641,140.69c2.91-.39,5.84.2,8.75.57a121.49,121.49,0,0,0,16.85.6"/><path class="cls-1" d="M493.07,98.16a55.86,55.86,0,0,0,2.58,20.16c1.24,4.22,2.89,8.31,4,12.57a137.77,137.77,0,0,1,2.54,15,194.84,194.84,0,0,0,21.53,64.7c2.34,4.3,4.87,8.59,6,13.33a50.21,50.21,0,0,1,1.12,9.55,35.44,35.44,0,0,0,1.34,9.35c-3.35-7.64,2-16.16,2.29-24.48.14-4.88-1.51-9.69-1.38-14.57a30.08,30.08,0,0,1,3.05-11.44c4.61-10.13,12.12-19.16,14.19-30.08.67-3.56.74-7.21,1.48-10.76.89-4.21,2.71-8.19,3.64-12.39,1-4.6,1-9.39,2-14,2-8.66,7.77-16.55,7.41-25.42a2.48,2.48,0,0,0-.35-1.37,2.69,2.69,0,0,0-2.36-.66,555.89,555.89,0,0,1-66.32-.93c-1.24-.1-2.43.13-2.86,1.24C493,98,492.94,99.7,493.07,98.16Z"/><path class="cls-1" d="M493,104.17a596.08,596.08,0,0,0,71,1.66"/><path class="cls-1" d="M531.22,106.3V168c0,6.23,0,12.51-1.34,18.59-.75,3.41-1.92,6.77-2.07,10.26-.39,9.18,5.9,19.39,2.12,27.78"/><path class="cls-1" d="M524.08,106.15l-.11,64.7a115.87,115.87,0,0,1-1,18.53,44.53,44.53,0,0,0-1,7.78c.07,5.33,2.78,11.51,3.6,16.78"/><path class="cls-1" d="M531.12,131.43a94.15,94.15,0,0,0,25.26-.88"/><path class="cls-1" d="M530.84,138.17a102.18,102.18,0,0,0,25-.12"/><path class="cls-1" d="M499.64,129.77a84.68,84.68,0,0,0,24.5,1.6"/><path class="cls-1" d="M501.06,137.19a103.21,103.21,0,0,0,23.24.34"/><path class="cls-1" d="M424,95.67a33.37,33.37,0,0,1-2.42,15.86c-1.43,3.45-3.45,6.69-4.34,10.32-.77,3.15-.64,6.45-.9,9.68a80.28,80.28,0,0,1-2.25,12.08c-4.52,18.87-9.08,37.85-16.55,55.79-2.11,5.08-4.5,10.49-3.34,15.86.38,1.78,1.15,3.5,1.18,5.31.07,4-3.42,7.74-2.32,11.59a34,34,0,0,0-3.85-15.33c-1.55-2.91-3.56-5.55-5.22-8.4-2.71-4.61-4.49-9.69-6.25-14.73-5.05-14.48-10.12-29-13.39-44-1.94-8.84-3.24-17.83-5.91-26.48-3.09-10-8-20.47-5.39-30.58,4.59-2.13,9.94-.76,14.95,0,6.1.87,12.31.69,18.47.51l24.31-.73C415.51,92.25,421.13,92.51,424,95.67Z"/><path class="cls-1" d="M352.49,101.94c23.9-.07,47.93,3.8,71.39.33"/><path class="cls-1" d="M386.06,103.76q-2.21,51.4.27,102.86a34.2,34.2,0,0,0,1.18,7.39"/><path class="cls-1" d="M393.79,104.05a93.47,93.47,0,0,0-1.38,15.77c-.52,17-1.05,33.92-.8,50.88.17,11.36.68,22.75-.4,34.06a21.57,21.57,0,0,0-.08,5.73,42,42,0,0,0,1.91,5.78,18.72,18.72,0,0,1,0,11.4"/><path class="cls-1" d="M359.41,126.78c8.25,1.42,17.42,2.46,25.77,2"/><path class="cls-1" d="M361.07,133.75a115.71,115.71,0,0,0,24.22,1.63"/><path class="cls-1" d="M392.05,135.36a180.86,180.86,0,0,0,23.74.13"/><path class="cls-1" d="M392.53,129.46a115.81,115.81,0,0,1,23.69-.63"/><path class="cls-1" d="M285.46,88.6q-8.88,29.63-16.09,59.73c-1.3,5.43-2.59,10.94-5.19,15.9-1.6,3.05-3.68,5.86-5,9-2.32,5.4-2.44,11.57-5.08,16.82-2.37,4.69-6.66,8.48-7.81,13.6-.88,4,.19,8.42-1.94,11.88-2,3.27-6.58,5-7.27,8.73-.56-6.51-.83-13.4-1.09-20.29a58.53,58.53,0,0,0-.67-7.83,69.63,69.63,0,0,0-2.61-9.12c-3.24-9.9-5.58-20.06-7.91-30.2a225.14,225.14,0,0,1-4.69-24.5c-.75-6.41-1-12.92-2.64-19.16-1.3-4.76-3.43-9.27-4.73-14s-1.71-10,0-14.4c4.8-2.23,10.37-1.86,15.66-1.43,19.21,1.56,38.4,3.33,57.55,5C285.57,88.42,285.28,88.56,285.46,88.6Z"/><path class="cls-1" d="M211.44,92.16c3.83-1.78,8.31-.81,12.46,0,15.43,2.9,31.26,2.74,47,2.56a67.61,67.61,0,0,1,12.76.67"/><path class="cls-1" d="M252.21,94.92c-1.19,3.25-1.22,6.79-1.27,10.25q-.42,33.64-3.79,67.18a150.71,150.71,0,0,0-1.1,16,22.94,22.94,0,0,1-.58,7.17c-.7,2.18-2.12,4.06-2.88,6.21-2.07,5.85.92,13.14-2.76,18.16"/><path class="cls-1" d="M673.3,141.6a167.85,167.85,0,0,0,22.81-2.28"/><path class="cls-1" d="M244.27,94.56,240.11,175a114.73,114.73,0,0,0-.12,14.48c.26,3.29.8,6.65,0,9.86-1,4.09-4.35,6.82-3.83,11"/><path class="cls-1" d="M218.56,116.18a146.07,146.07,0,0,0,24.65,3.4"/><path class="cls-1" d="M219.41,123.14a188,188,0,0,0,23.5,3.23"/><path class="cls-1" d="M250.45,127.08a109,109,0,0,0,24.55-.73"/><path class="cls-1" d="M251,120.19a95,95,0,0,0,26-.77"/><path class="cls-1" d="M834.19,137.84c8.09-.22,15.11-.54,23.28-.54Z"/><path class="cls-1" d="M1028.6,96.77c-1.22-.21-3.29-.4-4.12-.44a664.08,664.08,0,0,0-69.84.23c-2.29,8.52,7.34,15.64,9.23,24.25,1,4.44-.18,9-.21,13.56s1.14,9.21,2.29,13.72c3.49,13.62,7,27.33,12.89,40.18,2.24,4.89,4.84,9.73,5.76,15,.65,3.73.43,7.56.89,11.33.87,7.06,4.09,13.64,7.28,20.08,3.21-4.33-3-9.63-3.32-14.92-.2-3.45,2.16-6.49,4.23-9.33,9.25-12.64,14.81-27.37,19.42-42.14a406.25,406.25,0,0,0,15.68-71.1A.7.7,0,0,1,1028.6,96.77Z"/><path class="cls-1" d="M1028.18,103l-10.28.2c-21,.4-42.07.8-63.08.06"/><path class="cls-1" d="M994.75,103.68c1.74,35.27,1,71.49-1.07,106.74"/><path class="cls-1" d="M987.87,103.87l1.74,91.94c.15,8.15.57,15.54-3.38,22.77"/><path class="cls-1" d="M988.13,128.22c-7.71-.45-16.24-.82-24-1.27"/><path class="cls-1" d="M1023.81,126.19a94.42,94.42,0,0,1-27.93.9l-.55-.07"/><path class="cls-1" d="M1022.63,134c-8.47,1.08-18.42,2.18-27,1.65"/><path class="cls-1" d="M1196.22,94.39c5.58,7.56-1.84,17.25-5.5,25.81s-3.36,18-4.19,27.14a109.51,109.51,0,0,1-12.27,41.14c-3.88,7.35-8.67,14.46-10.29,22.53s.93,17.67,8.55,21.55a63.15,63.15,0,0,1-25.76-40.09c-.84-4.83-1.11-9.8-2.82-14.42-1.49-4-4-7.62-5.85-11.52-2.5-5.34-3.65-11.15-4.77-16.9l-9.64-49.32c-.41-2.12-.53-4.86,1.49-5.84a5.63,5.63,0,0,1,2.59-.34C1151.37,94.72,1175,95.31,1196.22,94.39Z"/><path class="cls-1" d="M1197.76,104.37a338.08,338.08,0,0,1-73.61-1.67"/><path class="cls-1" d="M1164.13,105.64c-.78,11.5-2.07,23.7-2.85,35.2-.57,8.41-1.14,16.94.65,25.19.7,3.23,1.76,6.42,1.76,9.72a36,36,0,0,1-1.11,7.33,101.71,101.71,0,0,0-1.91,28c.23,3.19.34,6,3.06,7.9"/><path class="cls-1" d="M1155.5,105.64c-.68,17.72-1.58,35.83-2.18,53.55a50.55,50.55,0,0,0,.16,8.07c.38,3,1.28,5.92,1.65,8.91.61,5-.26,9.94-.71,14.91a101.62,101.62,0,0,0,1,23.5"/><path class="cls-1" d="M1187.8,131.61a132.79,132.79,0,0,1-25.89.89"/><path class="cls-1" d="M1154.31,132.89c-3.49.48-4.58.13-8.57-.15-2.07-.14-3,.27-4.83.08a99.46,99.46,0,0,1-11.25-1.95"/><path class="cls-1" d="M1187.71,137.94c-3-.39-6,.2-9,.57a131.15,131.15,0,0,1-17.4.59"/><path class="cls-1" d="M1154.33,138.84a180.47,180.47,0,0,1-23.56-2.26"/><path class="cls-1" d="M1340.56,94.72a58.72,58.72,0,0,1-2.71,21c-1.28,4.19-3,8.26-4.13,12.48a131.4,131.4,0,0,0-2.63,14.89,188.43,188.43,0,0,1-22.24,64.25c-2.42,4.27-5,8.53-6.25,13.24a48.66,48.66,0,0,0-1.16,9.48,34,34,0,0,1-1.38,9.29c3.46-7.59-2.11-16-2.37-24.32-.14-4.85,1.57-9.62,1.43-14.47a28.92,28.92,0,0,0-3.15-11.35c-4.76-10.07-12.52-19-14.66-29.88-.69-3.53-.76-7.16-1.53-10.68-.91-4.19-2.8-8.14-3.76-12.31-1.06-4.57-1-9.33-2.06-13.89-2-8.61-8-16.44-7.66-25.25a2.31,2.31,0,0,1,.37-1.36,2.85,2.85,0,0,1,2.43-.66,595.21,595.21,0,0,0,68.5-.92c1.29-.09,2.52-.12,3,1C1340.51,95.24,1340.7,96.24,1340.56,94.72Z"/><path class="cls-1" d="M1340.56,101.67a642.75,642.75,0,0,1-73.31,1.65"/><path class="cls-1" d="M1301.1,103.78V165c0,6.19,0,12.42,1.38,18.46.77,3.39,2,6.73,2.13,10.2.41,9.11-6.07,19.2-2.17,27.54"/><path class="cls-1" d="M1308.48,103.63l.11,64.26a109.82,109.82,0,0,0,1.06,18.4,43.21,43.21,0,0,1,1,7.73c-.07,5.29-3.09,11.82-3.93,17"/><path class="cls-1" d="M1301.21,128.74a102.52,102.52,0,0,1-26.37-.72"/><path class="cls-1" d="M1301.49,135.44a110.05,110.05,0,0,1-25.78-.12"/><path class="cls-1" d="M1333.73,127.09a91.15,91.15,0,0,1-25.32,1.6"/><path class="cls-1" d="M1332.26,134.47a110.77,110.77,0,0,1-24,.33"/><path class="cls-1" d="M1411.9,93.23a32.17,32.17,0,0,0,2.5,15.75c1.48,3.43,3.57,6.64,4.48,10.25.8,3.13.67,6.4.94,9.62a75.65,75.65,0,0,0,2.32,12c4.67,18.75,9.38,37.59,17.09,55.41,2.19,5,4.66,10.43,3.46,15.76-.4,1.76-1.19,3.47-1.23,5.27-.07,4,3.54,7.69,2.41,11.51a32.71,32.71,0,0,1,4-15.22c1.6-2.89,3.68-5.52,5.4-8.34,2.79-4.58,4.63-9.63,6.45-14.63,5.22-14.38,10.46-28.81,13.84-43.68,2-8.78,3.34-17.71,6.1-26.31,3.19-9.95,8.3-20.32,5.56-30.36-4.73-2.11-10.26-.75-15.44,0-6.3.86-12.71.68-19.08.5L1425.56,90C1420.63,89.83,1414.83,90.09,1411.9,93.23Z"/><path class="cls-1" d="M1485.73,99.45c-24.69-.06-49.51,3.78-73.74.33"/><path class="cls-1" d="M1451.06,101.26q2.26,51-.29,102.15a33.88,33.88,0,0,1-1.25,7.41"/><path class="cls-1" d="M1443.07,101.55a89.34,89.34,0,0,1,1.43,15.66c.54,16.84,1.08,33.69.82,50.53-.17,11.29-.7,22.6.41,33.83a20.41,20.41,0,0,1,.09,5.68,41.51,41.51,0,0,1-2,5.75,18,18,0,0,0,0,11.32"/><path class="cls-1" d="M1478.4,124.8a124.33,124.33,0,0,1-26.43,1.28"/><path class="cls-1" d="M1476.79,131.41c-8,1.28-16.68,1-24.82.6"/><path class="cls-1" d="M1444.87,132.64a121.15,121.15,0,0,1-19.52-.19,13.72,13.72,0,0,0-5.68.25"/><path class="cls-1" d="M1444.37,126.78a124.3,124.3,0,0,0-24.47-.62"/><path class="cls-1" d="M1630.2,82.87c-5-2.21-10.72-1.84-16.19-1.42-19.58,1.53-38.9,3.26-58.41,4.86a3.45,3.45,0,0,1-.26.28s0,0,0,0l0,0-.15.19-.09.12h0q9.14,29.31,16.55,59.06c1.34,5.4,2.67,10.87,5.36,15.8,1.65,3,3.8,5.81,5.2,9,2.4,5.36,2.53,11.49,5.26,16.71,2.44,4.66,6.87,8.42,8.06,13.51.91,3.92-.2,8.36,2,11.79,2.09,3.25,6.8,4.93,7.51,8.67.58-6.46.86-13.31,1.14-20.15a54.57,54.57,0,0,1,.68-7.77,67.69,67.69,0,0,1,2.7-9.06c3.35-9.83,5.77-19.92,8.17-30a215.69,215.69,0,0,0,4.85-24.32c.77-6.37,1-12.84,2.73-19,1.33-4.73,3.54-9.21,4.88-14S1631.9,87.22,1630.2,82.87Z"/><path class="cls-1" d="M1631.44,89.74c-4-1.76-8.58-.8-12.87,0-15.94,2.88-32.29,2.72-48.52,2.55a72.08,72.08,0,0,0-13.18.66"/><path class="cls-1" d="M1589.33,92.48c1.22,3.24,1.26,6.75,1.3,10.18q.45,33.42,3.92,66.72a143.7,143.7,0,0,1,1.14,15.91,22.06,22.06,0,0,0,.6,7.12c.72,2.16,2.19,4,3,6.17,2.13,5.81-.24,13.83,3.56,18.82"/><path class="cls-1" d="M1597.53,92.13l4.29,79.92a107.83,107.83,0,0,1,.13,14.38c-.27,3.26-.83,6.59,0,9.78,1,4.07,4.41,8.52,3.87,12.66"/><path class="cls-1" d="M1624.09,113.59a154.67,154.67,0,0,1-25.46,3.38"/><path class="cls-1" d="M1623.2,120.51a199.72,199.72,0,0,1-24.27,3.2"/><path class="cls-1" d="M1591.14,124.42a116.91,116.91,0,0,1-25.36-.72"/><path class="cls-1" d="M1590.6,117.58a102.08,102.08,0,0,1-26.82-.76"/><path class="cls-1" d="M988.48,136.23c-8.35-.23-16.5-.29-24.81-1.12"/></svg>