<?xml version="1.0" encoding="utf-8"?>
<!-- Generator: Adobe Illustrator 26.3.1, SVG Export Plug-In . SVG Version: 6.00 Build 0)  -->
<svg version="1.1" id="Layer_1" xmlns="http://www.w3.org/2000/svg" xmlns:xlink="http://www.w3.org/1999/xlink" x="0px" y="0px"
	 viewBox="0 0 1907.9 212.2" style="enable-background:new 0 0 1907.9 212.2;" xml:space="preserve">
<style type="text/css">
	.st0{fill:none;stroke:#000000;stroke-miterlimit:10;}
	.st1{fill:#FFFFFF;}
	.st2{fill:#CF514C;}
</style>
<path class="st0" d="M0.1,39.2c323,31.4,421.5,24,710.8,28.1c101.3,1.4,380.6,0.2,481.9,0.2c261.5,0,468.6-2.2,713.3-33.8"/>
<path class="st0" d="M1.8,41.9c323,31.4,421.5,24,710.8,28.1c101.3,1.4,380.6,0.2,481.9,0.2c261.5,0,468.6-2.2,713.3-33.8"/>
<polyline class="st1" points="243.9,64.2 241.5,91.9 240.6,107.7 239.6,127.8 "/>
<path class="st1" d="M238.4,146.5l-0.5,0.7l0.4,14.2"/>
<path class="st1" d="M243.5,63.3c-1.1,0.3-1.6,1.7-1.7,2.8c-1.8,11.6,0.4,23.5-0.6,35.2c-0.3,3.6-1,7.3-1.3,10.9
	c-0.3,3.9-0.3,7.7-0.3,11.6c0,7.1-0.2,14.2-0.4,21.2c-0.1,6.1-0.5,12.2-1.3,18.3c-0.6,3.9-1.5,7.8-1.7,11.7c-0.1,1.9,0,3.7,0.1,5.6
	l0.6,11.4c1.3-1.3,2.4-2.6,3.4-4.1c1.2-2.2,2-4.6,2.4-7.1c5.7-27.8,11.4-56,8.9-84.3c7.8,0.9,15.7,0.7,23.5-0.8
	c0.9-3.7,1.4-7.6,1.4-11.4c-7.2-5.5-13.8-11.7-19.6-18.5c-0.7-1.2-2.1-1.8-3.4-1.7C250.1,64.2,246.8,63.9,243.5,63.3z"/>
<polygon class="st1" points="218.1,85 219.2,92.4 229.3,94.3 241.2,95.6 242.9,95.6 243.3,88.4 231.7,87.7 "/>
<polygon class="st1" points="212.6,53.7 211.6,58.3 211.6,61.2 214.5,60.3 219.9,60.8 229.5,62.3 260.5,64.4 275.3,64.2 282.9,64.8 
	284.5,61.2 285.3,57.7 261.8,55.3 244.7,53.6 233.5,52.9 226.2,52.2 220.6,52.3 "/>
<path class="st1" d="M385.5,73.2l-0.4,50.3l0.2,17.2l0.2,16.6l0.3,12.6l0.5,8.3l0.6,3.5l1.5,2.7l2.6,5l1.8,5.6l0.1,2.6l1.1-4
	l-0.2-4.4l-0.9-3.8l-1.5-4.1c0,0-0.5-4.5-0.7-5.2c2.3-17.5,3.5-35,3.6-52.7c0-8.5-0.2-17.1,1-25.5c1.1-8,3.5-16,2.4-24
	c0-0.4-0.1-0.7-0.4-1c-0.3-0.3-0.7-0.4-1.1-0.4C392.6,72.2,389,72.4,385.5,73.2z"/>
<path class="st1" d="M416.4,97.7c0,0-0.7,7.1-1.1,7c-6.8,1.6-13.8,2.6-20.8,3.1c-1,0.1-1.9,0-2.9-0.3c-1.7-0.8-2.3-2.9-2.6-4.8
	c-0.4-2.3-0.7-5.1,1.1-6.7c0.8-0.6,1.8-1.1,2.8-1.3c4.7-1.2,9.5-1.6,14.4-1.3c1.1,0,2.1,0.2,3.1,0.6c1,0.4,1.9,1,2.8,1.7
	C414.2,96.6,415.3,97.2,416.4,97.7z"/>
<path class="st1" d="M358.7,95.2c2.8,2.2,1.1,7.6,4.2,9.4c1,0.4,2,0.6,3.1,0.7c1.6,0.2,3.1,0.8,4.6,1c1.9,0.2,3.8,0.2,5.7,0l7.5-0.6
	c0.5,0,1-0.2,1.4-0.5c0.2-0.4,0.4-0.8,0.4-1.2l0.3-5.8c0-0.2,0-0.3-0.1-0.4c-0.2-0.2-0.4-0.3-0.6-0.2l-18.4-1c-1.5,0-3-0.2-4.4-0.6
	C361.2,95.3,359.9,95.1,358.7,95.2z"/>
<path class="st1" d="M353,61.6l-0.8,6.2c0.1,1.3,0.4,2.7,0.9,3.9l34.2,1.4c12.2,0.5,24.6,1,36.5-1.8l0.1-3.9l0.2-2.7
	c0,0-3.4-1.8-3.7-1.7c-3.8-0.8-7.6-1.3-11.5-1.4c-1,0,1,0.5,0,0.5c-1.5,0-3-0.1-4.5-0.1c-8.5,0-17,0.7-25.5,1.1
	c-2,0.2-4.1,0.1-6.1-0.1c-1.8-0.3-3.4-0.8-5.2-1.3C362.8,60.5,357.8,60.5,353,61.6z"/>
<polygon class="st1" points="499.1,98.8 500.8,105.5 508.3,107.2 523.9,106.7 524.3,100.4 514.3,100.7 505.9,99.8 "/>
<polygon class="st1" points="531.3,100.3 531.3,107.1 538.4,107.8 550.4,107.6 555.2,107.1 556.1,103.4 556.8,99.3 552,100.1 
	543.6,101 "/>
<path class="st1" d="M493.2,73.4v-6.9l5.5-0.4l15.6,0.7l26.7,0.2h12.4l9.3-0.7l2,1.9l0.2,3.1l-1.1,2.7c0,0-0.2,0.8-0.8,0.9
	c-8.7-0.3-17.4,0.8-26.1,1.2c-13.3,0.6-26.7-0.6-40-1.8C495.7,74.5,494.4,74.1,493.2,73.4z"/>
<path class="st1" d="M524.4,79.5c-1,9.8-2,19.6-1.8,29.5c0.1,8.2,1.1,16.5,0.8,24.7c-0.3,7.6-1.8,15.1-2.3,22.7s0,15.5,3.3,22.3
	c2.4,5,6.4,9.8,6,15.3c2.2-4.6,1.6-10,0.5-14.9s-2.8-9.9-2.5-15c0.2-3.9,1.6-7.6,2.6-11.4c6.6-24.1,0.1-49.7,1.8-74.6
	c0.1-1,0.1-2.2-0.7-2.8c-0.4-0.3-0.9-0.5-1.5-0.5c-1.9-0.3-3.9-0.3-5.9-0.1c-0.4,0-0.7,0.1-1,0.4c-0.3,0.4-0.4,0.9-0.3,1.3
	C523.4,78.5,523.6,80.5,524.4,79.5z"/>
<polygon class="st1" points="664.3,77.2 665.8,103.5 666,123.2 664,140.1 662.4,154.4 664.7,164.7 666.5,175.3 666.4,184.8 
	665.3,189.1 663.8,192.7 663,196.6 661.6,198.6 667.3,194 673.4,184.9 673.9,170.2 675.1,160 675.3,141.5 677.6,121.9 676.6,102.5 
	677.5,85.2 677.6,77.5 "/>
<polygon class="st1" points="697,102.1 695.5,108.5 683.2,109.5 674.3,110.2 672.4,103.4 679.6,101.1 689.2,100.4 "/>
<path class="st1" d="M640.9,101.5l0.8,7.8c0,0.9,0.3,1.8,0.9,2.5c0.4,0.3,0.8,0.5,1.3,0.5l7.7,2c3,0.8,6,1.6,9.1,1.2s6.2-2.1,7.2-5
	c0.5-1.7,0.6-3.5,0.1-5.2c-0.1-0.8-0.4-1.6-1-2.1c-0.8-0.7-2.1-0.6-3.2-0.6c-2.9,0.2-5.8-0.1-8.6-0.7c-2.4-0.5-4.7-1.3-7.1-1.6
	C645.6,99.8,643,100.3,640.9,101.5z"/>
<polygon class="st1" points="633.1,65.9 631.5,69.3 631.1,73.4 632.1,76.8 654.9,80.4 681.9,80.4 695.8,77.1 701.6,74.8 703.4,71.1 
	703.2,67.2 700.7,65.5 686.7,66.2 672.2,65.9 657.6,66.6 649.4,66.6 "/>
<path class="st1" d="M834.2,97.5c-2.3,1.1-2.8,4.2-2.8,6.9c0,1.9,0.3,3.7,1.1,5.5c0.7,1.7,2.2,3.1,4.1,3.6c1.2,0.2,2.5,0.1,3.7-0.2
	c5.4-1.1,10.7-2.7,15.7-4.9c0.5-0.1,0.9-0.4,1.2-0.8c0.2-0.5,0.3-1,0.2-1.5l-0.6-6.3c0-0.2-0.1-0.5-0.2-0.7
	c-0.3-0.6-1.2-0.5-1.9-0.4c-5.4,1-10.8,1.2-16.2,0.5c-0.7-0.1-1.4-0.2-2-0.4c-0.5-0.2-0.9-0.4-1.3-0.6
	C834.8,97.9,834.5,97.7,834.2,97.5z"/>
<path class="st1" d="M800,97.2c0,2.5,0.2,5.1,0.8,7.6c0.6,2.5,2.1,4.7,4.2,6.2c1.2,0.7,2.4,1.2,3.8,1.5c4.4,0.9,9,0.3,12.9-1.8
	c1.1-0.5,2.1-1.3,2.9-2.2c1.1-1.4,1.8-3.1,2.2-4.8l1.1-3.7c0.3-1,0.6-2.4-0.2-3.1c-0.5-0.3-1-0.5-1.6-0.6
	c-6.7-0.7-13.4,1.8-20.2,1.5C803.9,97.7,802,97.4,800,97.2z"/>
<path class="st1" d="M825.7,72.4c-1.7,13-1.4,26.2-1.1,39.3l0.6,24.6c0.3,12.5,0.6,25,1.3,37.5c0.2,3.2,0.4,6.5,2.1,9.1
	c1.3,2,3.4,3.6,4.1,5.9c1,3-0.8,6.2-2.3,9.1s-2.7,6.4-1,9.1l3.2-7.3c1.5-3.4,3-7.1,2.5-10.7c-0.2-1.3-0.5-2.6-0.9-3.9
	c-3.9-14.1-0.7-29.1,0.2-43.8c1.4-21.4-1.9-43.1,1.4-64.3c0.2-0.8,0.1-1.6-0.3-2.3c-0.5-0.4-1-0.6-1.6-0.7
	C831.1,73.7,828.4,73.1,825.7,72.4z"/>
<path class="st1" d="M795.5,68c-0.2,2-0.1,4,0.3,6c0.1,1,0.6,2,1.4,2.7c0.6,0.4,1.3,0.7,2,0.8c16.6,4.1,34.1,2.6,51.2,1
	c3.4-0.3,6.9-0.7,10-2.2c1.6-0.8,3.5-1.9,5-0.9c0.8-2.3,1.2-4.8,1-7.2L841,67.1L826.4,67l-11.5,0.4L804,67.7L795.5,68z"/>
<path class="st1" d="M987.4,71.2c-3.1,17.1,2.7,34.6,2.1,52c-0.3,9.1-2.3,18-2.6,27c-0.3,10.4,1.6,20.9,0.3,31.2
	c-0.3,1.9-0.5,3.8-0.5,5.8c0.3,2.8,1.2,5.5,2.5,8l3.9,8.8c1.5-2.7,0.4-6-1-8.7s-3.1-5.5-2.8-8.6s2.7-5.7,4.2-8.5
	c1.4-3,2.4-6.2,2.7-9.5c2.1-13.9,2.1-28.1,2.2-42.2c0-14.4,0-28.9-0.2-43.3c-0.1-3.6-0.2-7.2-1.4-10.6c-0.2-1-0.9-1.8-1.8-2.3
	c-0.6-0.2-1.2-0.2-1.9,0C991.1,70.7,989.2,71,987.4,71.2z"/>
<path class="st1" d="M1024.1,92.4c-0.3,4.7-1.3,9.4-2.9,13.8c-0.2,0.7-0.6,1.3-1.1,1.8c-0.4,0.3-0.9,0.5-1.4,0.6
	c-6.4,1.6-12.9,2.6-19.5,3.2c-1.4,0.1-3.1,0.1-4-1.1c-0.3-0.5-0.5-1.1-0.6-1.7c-0.6-3.2-0.9-6.5-1-9.8c0-1.9,0-3.9,1.3-5.3
	c1.8-2,4.9-1.7,7.5-1c4.4,1.2,9,3.4,13.5,2C1018.4,94.2,1020.7,92.4,1024.1,92.4z"/>
<path class="st1" d="M964.6,93.5l-0.6,8.4c-0.2,2.6-0.2,5.8,2,7.3c0.9,0.6,1.9,0.9,3,1c5.8,1,11.7,1.2,17.6,0.6
	c1.3,0,2.5-0.4,3.5-1.3c0.6-0.9,0.9-2,0.8-3.1l0.3-6.2c0.1-0.9,0-1.9-0.3-2.8c-0.5-0.9-1.3-1.6-2.3-2c-4.5-2.2-9.8-1.7-14.8-1.2
	l-8.3,0.9C965.3,94.6,965,94.2,964.6,93.5z"/>
<path class="st1" d="M955.2,65.9c-1.7,1.7-1,4.9,0.9,6.4s4.4,2,6.8,2.3c3.2,0.5,6.5,1,9.7,1.2c9.9,0.8,19.8-0.5,29.7,0.2
	c4.3,0.3,8.7,1,13,0.4c2.7-0.5,5.3-1.2,7.8-2.1c1-0.3,2-0.7,2.8-1.3c2.1-1.6,2.5-4.7,2.6-7.4C1004.2,64.4,979.7,64.5,955.2,65.9z"/>
<path class="st1" d="M1153.5,71.6c1.2,5.6,0.1,11.5-0.4,17.2c-0.3,6.5-0.3,13,0.2,19.5c0.9,18.8,0.8,37.6-0.5,56.3
	c-0.4,3.5-0.4,7.1,0,10.6c1.2,8.3,6.9,15.3,13.3,20.7c-4.3-9.8-6.2-20.5-5.4-31.2c1-13.5,6.3-26.7,4.7-40.2
	c-0.8-6.7-3.2-13.2-3.4-19.9c-0.2-9.4,4.1-18.4,5-27.8c0.2-1.2,0.1-2.4-0.4-3.5c-1.3-2.4-4.8-2.2-7.5-1.6l-5.4,1.2
	c-0.2,0-0.5,0.1-0.7-0.1S1153.4,72.3,1153.5,71.6z"/>
<path class="st1" d="M1129.2,98.2l2.4,8.9c0.1,0.8,0.5,1.5,0.9,2.1c0.6,0.5,1.2,0.9,2,1.1c12.3,4.4,25.3,6.2,38.3,5.1
	c4.3-0.4,9-1.3,11.7-4.6c2.2-2.7,2.5-6.4,2.7-9.9c0.1-0.9,0-1.8-0.3-2.6c-0.8-1.3-2.5-1.4-4-1.4
	C1165.1,96.7,1147.3,97.2,1129.2,98.2z"/>
<path class="st1" d="M1124.4,63.7c-0.9,3-1.5,6.3,0,9s5,4.1,8.2,4.7c10,2.1,20.4,1.1,30.5-0.5c3.2-0.6,6.4-1,9.7-0.9
	c3.4,0.2,6.7,1.1,10.1,1.4c3.7,0.3,7.3-0.1,10.8-1.3c0.9-0.2,1.7-0.7,2.5-1.2c0.9-0.9,1.5-2.2,1.7-3.5c0.4-2.2,0.1-4.5-0.8-6.5
	c-0.1-0.4-0.4-0.8-0.8-1c-0.4-0.1-0.8-0.2-1.2-0.1c-19.9,1.1-39.9,1-59.8-0.2C1131.6,63.2,1127.7,62.9,1124.4,63.7z"/>
<path class="st1" d="M1299.9,70.7c-1.7,15.2,2.1,30.6,1.1,45.9c-0.7,11.2-3.9,22.6-1.5,33.6c0.8,3.8,2.3,7.4,2.8,11.3
	c1.2,10-4.7,20.6-0.9,30c4.5-9.8,8.2-19.9,10.9-30.3c1.5-5.3,2.4-10.7,2.7-16.2c0-4.7-0.3-9.5-0.9-14.2c-1.4-16.8-0.2-33.8-2.1-50.6
	c-0.4-3.5-1.2-7.4-4.1-9.4C1305.5,69.3,1302.4,69.2,1299.9,70.7z"/>
<path class="st1" d="M1274.9,95.5c0.1,2.1,0.3,4.3,0.7,6.4c0.3,2.1,0.9,4.4,2.4,6c1.4,1.3,3.1,2.2,5,2.6c4.4,1.5,8.9,2.9,13.5,2.7
	c0.6,0,1.2-0.1,1.8-0.4c0.9-0.6,1.5-1.4,1.9-2.4c2.1-4.5,3.9-9.2,5.3-14c0.1-0.4,0.1-0.7,0-1.1c-0.3-0.3-0.7-0.5-1.1-0.5
	C1294.6,93.7,1284.8,97.2,1274.9,95.5z"/>
<path class="st1" d="M1308.4,95.6c-0.5,3.9-0.8,7.9-0.8,11.9c0,0.8,0.1,1.7,0.8,2.1c0.3,0.1,0.7,0.2,1,0.2
	c5.6,0.1,11.2,0.1,16.5-1.5c2-0.6,4.1-1.6,5.2-3.3c0.5-0.9,0.9-1.9,1.2-3l2.3-8.5C1324.7,92.4,1314.6,93.5,1308.4,95.6z"/>
<path class="st1" d="M1266.7,65c-1.4,2.4-0.5,5.6,1.4,7.5s4.6,3,7.3,3.6c16.2,4.1,33.1-1.2,49.8-0.9c2.3,0.2,4.6,0.1,6.9-0.3
	c2.1-0.6,4.1-1.4,6-2.5c0.7-0.3,1.3-0.8,1.8-1.4c0.2-0.4,0.4-0.9,0.4-1.4c0.3-2,0.3-4.1,0-6.1C1315.8,65.4,1291.2,65.9,1266.7,65z"
	/>
<path class="st1" d="M1440.1,69c4.4,14.9,6.4,30.4,5.8,45.9c-0.6,16.8-4.1,33.6-1.2,50.2c0.5,3.1,1.3,6.2,0.8,9.2
	c-0.4,2.7-1.7,5.2-2.5,7.8c-1.1,4-0.9,8.2,0.7,12.1c0.2-5.3,3.6-9.9,5.7-14.7c2.8-6.4,3.3-13.6,3.7-20.6c1.5-26.3,1.7-52.7,1.3-79.1
	c-0.1-5.4-0.7-11.8-5.4-14.5C1445,62.8,1439,65.2,1440.1,69z"/>
<path class="st1" d="M1450,90.4l1.5,15.2c0.1,0.7,0.4,1.6,1.1,1.5c0.3-0.1,0.5-0.3,0.7-0.5c1.2-1.1,2.8-1.7,4.4-1.7
	c2.2-0.2,4.4,0,6.6,0.4c1.4,0.4,2.8,0.5,4.2,0.4c0.8-0.2,1.6-0.5,2.3-0.9l3.2-1.7c0.5-0.2,0.9-0.5,1.3-0.9c0.3-0.4,0.4-0.8,0.6-1.2
	l3-9.8C1469.8,93.5,1460.4,94.6,1450,90.4z"/>
<path class="st1" d="M1419.8,93c-0.7,4.4,0.5,8.8,3.2,12.3c0.2,0.3,0.4,0.5,0.7,0.6c0.3,0.1,0.7,0.1,1.1,0c2.8-0.4,5.5,0.2,8.3,0.5
	c4,0.4,8,0.5,12.1,0.2c0.8,0.2,1.5-0.3,1.7-1.1c0-0.2,0-0.4,0-0.7l0.2-9.4c0-0.4,0-0.7-0.2-1c-0.2-0.2-0.4-0.3-0.6-0.3
	c-5.5-1.8-11.5-1.5-17.3-1.2C1425.9,93.1,1422.8,93.1,1419.8,93z"/>
<path class="st1" d="M1412.3,62.3c-0.6,2.9-1,6.5,1.3,8.3c0.8,0.5,1.7,0.9,2.6,1.1c7.4,1.9,15.2,2,22.8,2c4.8,0.1,9.7-0.1,14.5-0.6
	c3-0.6,6-0.8,9-0.8c3.8,0.2,7.7,1.8,11.5,0.8c1.6-0.4,3.1-1.2,4.7-1.6s3.3-0.3,4.7-1c1.7-1.1,2.8-3,2.8-5c0-2-0.3-4-1-5.9
	c-3.4-0.8-7-1-10.5-0.4l-7.9,0.9l-12,0.4l-12.1-0.6l-10.2-0.3l-8-0.3l-4.8,0.2l-2.8,0.3"/>
<path class="st1" d="M1585.7,59.8c1.6,4,2.8,8.1,3.7,12.4c3.4,16.9,0.5,34.4,1.1,51.6c0.4,9.9,1.9,19.7,4.6,29.3
	c1.1,3.3,1.9,6.8,2.4,10.2c0.2,2.5,0.1,5,0.3,7.6c0.5,5.4,2.6,10.6,4.9,15.6c0.1,0.4,0.4,0.8,0.8,1.1c0.8,0.4,2.3,0.5,1.8,1.2
	c-0.6-4.8,1.2-9.5,1.1-14.3c-0.1-3.7-1.2-7.3-2-10.9c-3.3-14.8-1.3-30.2-2.1-45.3c-0.6-10-2.4-19.9-2.5-29.9
	c-0.2-9.5,1.2-19.1,0.3-28.5c0-0.7-0.2-1.3-0.6-1.9c-0.7-0.7-1.7-1.1-2.8-1.1C1592.5,56.5,1588.4,57.4,1585.7,59.8z"/>
<path class="st1" d="M1563.7,84.3c0.8,5.9,2.2,12.6,7.3,15.6c2.2,1.1,4.6,1.8,7.1,2c12.8,1.9,26.5,2.8,37.9-3.2
	c2-0.9,3.8-2.3,5.1-4.1c0.8-1.5,1.4-3,1.7-4.7l2.6-10.1l-15.8,1l-45,2.9C1564.1,83.8,1564,84.8,1563.7,84.3z"/>
<path class="st1" d="M1555.2,56c0.7,1.4,1.1,3,1.3,4.6c0.4,1.5,1.3,3.2,2.8,3.6c1.2,0.3,2.4,0,3.6-0.1c2.2-0.1,4.2,1,6.3,1.6
	c1.9,0.4,3.8,0.6,5.7,0.5c9-0.1,17.9-1.6,26.9-1.5c3,0.2,6,0.1,9-0.1c7-0.9,13.4-5,20.4-4.6c0.3-2.2,0.2-4.3-0.2-6.5
	c-0.1-0.4-0.2-0.8-0.5-1.2c-0.3-0.2-0.6-0.4-1-0.5c-4.7-1.4-9.8-1.3-14.8-1s-9.8,0.7-14.7,1.1C1585.1,53.2,1570.2,54.5,1555.2,56z"
	/>
<path class="st1" d="M212.9,53.8c-2.5,3.2-1.1,8.2,2,10.8s7.5,3,11.5,2.7s8-1.4,12-1.5c5.9-0.2,11.6,1.6,17.5,2.4
	c7.8,1.1,15.7,0.6,23.2-1.5c1.1-0.2,2.2-0.8,3-1.5c0.6-0.7,1.1-1.6,1.4-2.6c0.6-1.6,1.2-3.2,1.9-4.8l-61.6-5.7
	C219.9,51.7,215,51.2,212.9,53.8z"/>
<path class="st1" d="M288.8,24.5c-0.2,12.5-1.9,24.9-3.5,37.3c-0.2,1.5-0.6,3.2-1.9,3.7"/>
<polygon class="st2" points="502.1,114.3 502.7,117.5 503,121.4 504.1,126.6 505.1,131.4 514.5,160.3 517.5,166.8 519.8,172.8 
	522.6,177.6 523.2,178.7 524,180 524.9,181.3 524.5,176.5 523.3,173.4 522,167.6 522.2,163.2 524.1,150.5 524.2,146.6 523.9,141.8 
	523.8,107 521.9,106.6 518.9,107.4 515.4,107.7 512.3,107.1 509.6,107.1 507.3,107.1 504.5,106.9 502.5,106.6 501.1,107.1 
	501.7,110.2 "/>
<polygon class="st2" points="531.4,107.4 531.6,113.4 531.5,121 531.4,127.4 531,133.6 531.5,139.5 531,146.7 530.1,153.5 
	529.3,158.9 528.3,162.6 528.1,167.1 528.6,172 529.4,176.5 530.6,180.7 530.9,183.8 531.3,187.2 531,190.9 530.4,192.9 
	530.5,196.2 530.9,199.6 531.1,201.3 533,196.9 533.9,193.1 534.5,189.3 534.4,183.9 533.7,178.2 533,173.8 533.6,169.5 
	534.8,164.4 536.2,161.1 541.6,151.4 544.8,145.9 547.8,140.2 550.4,132.4 551.3,126.4 552.1,119.7 553.5,114.3 555,110.2 
	555.6,107.5 551.5,107.7 545.6,108.1 537.7,107.8 "/>
<polygon class="st2" points="531.5,75.3 531.2,100.4 537,101.1 543.1,101 548.9,100.3 556.4,99.7 556.9,97 558.4,91 561.2,84.4 
	564,76.3 564.4,74.6 558.5,75.4 "/>
<polygon class="st2" points="524.1,75.2 523.7,100.7 518.3,100.9 512,100.8 507.8,100.4 504.5,100 501.1,99.5 499.1,98.3 
	498.1,94.8 496.8,90.4 495.3,85.1 494.1,80.5 493.5,76.3 493.1,73.3 "/>
<polygon class="st2" points="361.1,103.5 363.4,114.2 367.3,130.2 371.7,144.6 376.1,158.1 380.2,169.5 383.7,176.7 387,180.9 
	385.5,160.6 385.6,140.1 385.3,121.3 385.1,112.4 385.1,104.5 "/>
<polygon class="st2" points="392,104.6 391.8,114.3 391.6,127.6 391.6,137.3 391.6,148 392,155.8 391.9,162.9 391.7,169.6 
	391.2,174.6 391.3,179 392.4,182.9 394.1,187.6 394.2,192.4 395.5,189.7 394.2,183.6 393.9,179.9 394.9,175.4 398.5,165.2 
	404.4,149.9 408.7,134 412.5,119.1 415.2,108 415.7,104.8 "/>
<polygon class="st2" points="394.3,72.7 393.2,78.1 392.8,84.2 392.5,89.9 392.1,95.3 392.4,98.6 396,98.5 400.7,98.2 405.5,97.6 
	409.3,97.9 413.2,98 416.1,97.8 416.8,94.3 418.4,88.4 420.5,83.1 422.4,78.9 423.2,75.4 424,72 417.7,72 412.6,73 406.6,73.2 
	401.4,73.2 "/>
<polygon class="st2" points="352.8,71.3 353.1,75.6 354.9,80.9 356.7,86.5 358.2,91.6 359.5,95.9 363.6,96.7 369.2,97.4 374.8,97.9 
	379.4,98 383,98.3 385.1,97.7 385.4,94 385.7,89.3 386,84.2 386.1,78.8 386.1,75.4 386.3,72.5 377.8,71.9 370.2,71.8 364.5,71.6 
	359.4,71.5 "/>
<polygon class="st2" points="211.6,61.3 212,65.5 213.3,70.4 215.2,74.7 217,79.7 217.7,83.7 218.4,85 224.2,86.6 231,88 
	236.6,88.4 242.1,88.7 243.1,87.4 243.4,81.7 244,76.7 243.9,71.5 244.3,67.4 244.4,64.4 244.3,63.8 237.9,63.4 232.3,62.6 
	228,62.1 224.6,61.5 220.6,60.7 217.5,60.7 "/>
<polygon class="st2" points="252.2,64.1 251.6,68.9 251.1,74.9 251.3,80.6 250.9,85.8 250.8,88.9 255.1,89.7 260.6,90 265.6,89.9 
	270.8,89.5 274.9,88.8 276.6,88.4 277.8,84.6 279.7,78 281.1,72.8 282.2,69.3 283,66.2 283.7,64.1 281.3,64.1 275.6,63.9 269,64.2 
	262.5,64.1 257,64.1 "/>
<polygon class="st2" points="250.4,96.2 249.7,107 249.5,118.1 248.4,130.3 247.5,142 246.6,150.8 246.3,157.4 245.9,162.3 245,166 
	242.9,170.1 241.9,175.4 241.9,181.6 241.2,185.9 240.4,188.3 243.4,186.4 245.1,183.2 245.9,178 246.6,172.7 248.4,168.3 
	251.6,163.3 254.3,158.8 256.4,152.5 259,143.6 261.9,137.7 264.8,132.2 268.2,122.5 270.4,113.5 271.8,107.7 273.2,101.7 
	274.4,97.5 275.1,95.1 272.3,95.6 266.5,96.9 261.6,96.8 257.2,96.9 254.1,96.3 "/>
<polyline class="st2" points="219.4,92.1 219.5,98.9 220.8,106.6 222.6,114.9 225.1,125.4 226.7,133.4 229,142.6 231.2,151 
	232.9,157.7 235.3,163.9 236.1,170 236.1,175.3 238.2,172.9 240.1,169 240.4,164.5 240.3,159.8 240.2,154.4 240.1,147 240.6,138 
	241.1,127.4 241.3,118.2 241.7,111 242.1,105.2 242.4,99.9 242.9,96.8 242.6,94.9 237.1,94.6 231.9,94.5 227,94 "/>
<polygon class="st2" points="672.7,77 672.7,81.9 672.8,87 673,92.7 673.3,97.9 673.4,101.6 673.3,103.5 674.7,104.3 677.1,104.1 
	680.4,103.8 683.2,103.4 686.8,103.8 690.8,103.3 693.6,102.8 696.5,102.4 697.4,101.9 698,98 699.7,89.6 701,82.7 701.9,78.2 
	702.8,74.5 698.4,75 691.1,75.7 684.8,76.5 679.5,76.9 "/>
<polygon class="st2" points="631.8,76.2 632.4,79 633.9,82.9 635.5,86.2 636.7,88.5 638.3,91.8 639.5,95.6 640.4,98.6 640.6,101.5 
	641.1,102.7 642.9,103 645.7,103.3 649.2,104.2 653,104.4 656.6,104.5 660.9,104.7 664.6,104.5 666,104.5 665.8,99.5 665.2,93.3 
	665.1,88 664.8,84.1 664.5,81.1 664.2,77.9 661.6,77.8 655.1,77.2 649.1,77.3 643.5,77 638.3,76.5 634.5,76.2 "/>
<polygon class="st2" points="641.5,109.6 642.3,115.5 642.4,120.7 643.1,126.3 644.1,130.7 645,135.7 646.9,142.2 648.8,148.3 
	650.3,152.1 652.1,156.7 655,161.9 657.2,166.5 660,171.4 662.2,176.7 663.9,182.7 664.4,187.6 664.2,190.7 663.9,191.8 
	665.1,190.7 666.2,189.2 667.1,186.6 667.3,182.6 667.5,177.8 667.6,172.4 667.4,167.2 666.5,160.1 665.3,153.8 664.2,148.9 
	664.5,143.4 665.9,139.7 666.8,132.5 667.2,126.3 667.3,121.3 666.9,116.6 666.6,112.9 666.5,110.9 660.4,111.1 654.9,110.7 
	651.4,110.7 648.3,110 645.4,109.9 "/>
<polygon class="st2" points="673.8,110.4 673.8,116.1 674.3,123.6 674.6,131.1 674.3,137.4 673.8,141.5 673,146.2 672.5,150.2 
	672.5,154.7 673,159.1 673.4,164 673.6,169 673.5,174.6 673.2,179.7 673.2,183 673.1,185 674.9,182.5 676.5,179.1 678.4,174.3 
	679.7,170.4 680.4,166.3 681.2,163.3 681.7,158.5 682.4,153.5 683.5,149.7 685.5,146.1 688.2,140.5 690.4,134.9 692.1,128.9 
	693.4,123.5 694.4,117.1 695.3,113 695.9,109.9 696,108.4 691.8,109 687.2,109.8 682.8,110.2 679,110.5 "/>
<polygon class="st2" points="796.2,75 796.8,80.7 797.9,88.3 799,94.6 800.1,98.4 804.6,99.2 808.3,99.4 813,99.5 818.2,99.2 
	822.4,99.1 826.3,99.1 826.9,98.3 827.3,94.5 827.5,87.7 827.6,82.1 827.8,78.4 828,75.4 819.6,75.4 809.7,75 802.5,75.1 "/>
<polygon class="st2" points="801.4,105.5 802.2,109.9 803.2,116.5 804.9,121.9 806.1,127.2 807.7,132.6 809.2,138.3 810.7,143.9 
	812.7,149.9 814.6,154.9 816.5,160.1 818.5,164.4 820.8,169.3 823.1,173.5 825.3,177.5 827.9,181.2 828,178.6 828,174.8 
	827.3,162.1 827.1,149.9 826.9,136.1 826.8,125.6 826.8,114.7 826.7,107 827,106.2 824.8,106.6 819.1,106.6 814.2,106.4 
	810.3,106.6 807.2,106.1 "/>
<polygon class="st2" points="833.6,107.2 833.4,117 833.8,125.4 833.6,134.3 833.4,144.7 833.3,155.6 832.8,164.1 832.8,171.9 
	832.7,177.5 833.1,182.2 834.1,186 835.5,189.7 835.9,190.9 836.5,188.6 836.9,183.8 837.3,177.9 837.7,174.9 839.2,170.8 
	840.5,166.4 842.7,161.2 846.1,153.1 848.6,145.1 850.7,138.5 853,129.5 855.1,121.7 856.3,115.9 857.4,110.9 857.9,106.5 
	852.7,106.1 846.8,106.6 841.4,107 "/>
<polygon class="st2" points="834.8,75.8 834.8,86.8 834.2,96.1 834.2,99.9 837.8,99.9 845.6,99.9 853,99.7 857,99.5 857.2,96.4 
	857.5,92.8 858.9,88.4 861.2,84.6 863.5,80.5 865.5,77 866.3,74.5 861.5,75.1 "/>
<polygon class="st2" points="963.5,104 964.7,111.7 966.7,120.2 969.2,128.7 971.6,137.7 974.3,145.7 977,153.4 980,160 
	983.3,167.3 984.9,174 985.2,179.9 985.8,184.4 986.3,187 987.7,185.1 989.2,180.2 989.7,176 989.8,171.9 989.5,156.6 988.9,130.5 
	988.6,105.3 977.8,105.2 969.8,104.9 "/>
<polygon class="st2" points="995.7,104.8 995.7,138.3 995.3,154.7 994,173.1 993.8,178.1 995.2,176.9 1004.3,161.1 1009.2,149.2 
	1014.1,134.3 1020.2,111.9 1022.1,104 1015.8,104 1010.7,104.8 1005.7,104.8 999.8,105.4 "/>
<polygon class="st2" points="994.8,72.5 995.8,96.1 1002.7,96.9 1009.4,96.9 1015.6,96.5 1019.9,95.9 1023.4,95.3 1024.8,91.9 
	1026.6,82.4 1028.2,72.4 1012.8,72.5 "/>
<polygon class="st2" points="987.9,72.6 988.3,97.2 964.8,95.7 964.4,91.7 963,87 960.5,82.2 957.8,77.9 955.9,75.2 955.4,72.4 
	969.1,72.9 980.3,72.6 "/>
<polygon class="st2" points="1130.9,105.4 1132.8,114 1133.8,121.2 1135.6,128.6 1138.3,136.2 1141.6,142.2 1144.3,147.4 
	1145.6,154.3 1146.7,161 1148.3,167.6 1151.3,175.7 1154.4,181.7 1155,179.2 1154.3,172.1 1154.3,164.8 1155.1,157.7 1155.6,150.7 
	1154.9,143.2 1153.6,137 1153.5,131.2 1153.6,121.5 1154.1,108.4 1149.4,107.9 1142.8,107 1138.4,106.9 "/>
<polygon class="st2" points="1161.6,108 1160.9,114.2 1160.6,120.2 1160.8,127.4 1161.6,133 1162.8,138.3 1163.9,143.5 
	1162.8,150.8 1162,155.8 1161.2,162.1 1160.7,168.1 1160.3,173.3 1160.7,178.7 1161.2,183.4 1162.2,186.2 1163.6,187.8 
	1163.6,182.1 1164.7,177.6 1167.2,171.4 1170.9,163.9 1175.1,156.2 1179,147.8 1182.4,136.9 1184.6,128.6 1186,121.8 1186.7,115.4 
	1187,110.2 1187.4,107 1183.2,106.9 1177.3,108 1170.5,108.1 1165.9,108.8 "/>
<polygon class="st2" points="1164.2,74.9 1162.3,101.5 1170.5,102 1181,101.4 1187.7,101 1188.9,94.7 1191,88.4 1194,82.9 
	1196.7,77.1 1197.8,73.2 1187.5,74.5 1178,74.6 1171.3,74.8 "/>
<polygon class="st2" points="1124.1,71.7 1127,85.7 1129.4,97.1 1129.9,100.2 1136,101.4 1141,102 1144,101.9 1147.2,102 
	1151,102.3 1154.3,101.9 1155.6,74.5 1146.4,73.9 1134.5,73.2 "/>
<polygon class="st2" points="1275.9,104.3 1278.2,112 1279.7,117.4 1280.8,123.5 1281.5,129.6 1283.9,135.9 1287,142.5 
	1290.6,148.1 1295.6,157 1297.9,162.6 1298.9,168.1 1298.8,174 1297.8,180.1 1297.7,185.6 1298.7,190.6 1299.5,193.8 1301,198.1 
	1301.6,195.6 1302.2,189.9 1301.2,185.1 1301.9,179 1304.1,169.5 1304.7,162.6 1303.8,156.5 1302.1,151.2 1301.5,138.9 
	1301.6,138.9 1301.4,132.5 1301.2,122.5 1301.2,113.7 1301.3,104.3 1293.4,104.7 1285.2,105.1 "/>
<polygon class="st2" points="1308.6,103.4 1308.5,130.6 1308.8,146.3 1309.6,154.3 1310.5,160.1 1310.6,165.4 1309.3,171 
	1307.8,175.7 1307.2,178.7 1311.4,171.6 1316.4,161.6 1321.1,150.5 1324.2,141.1 1327.5,130.2 1329.6,120.6 1330.9,112 
	1332.4,103.9 1332.6,102.2 1330.6,103.8 1326.6,104.5 1320.6,104.7 1314.4,104.6 "/>
<polygon class="st2" points="1308.4,72.5 1308.7,98.3 1313.7,98.2 1320.8,97.8 1327.3,97.2 1333.8,96.5 1336.4,89.5 1338.6,82 
	1340.3,75.2 1340.6,70.8 1331.4,71.8 1318.9,72.6 "/>
<polygon class="st2" points="1267.2,72.5 1269.5,79.4 1272.4,86.3 1274.1,91.7 1275.3,97 1279.9,98 1286.1,98.5 1293.1,98.3 
	1300.7,98.1 1301.3,94.5 1301.3,88.1 1301.4,78.4 1301.4,72.7 1286.1,72.9 1274.9,73 "/>
<polygon class="st2" points="1412.1,69.1 1413.2,73.6 1415.3,79.6 1418.2,85.6 1419.6,91 1419.8,95.4 1424.1,95 1430.9,95.1 
	1437,95.1 1443.1,96 1444.7,96 1444.5,90.1 1444.7,82.9 1444.4,76.9 1443.6,72.4 1443.2,70.3 1434.5,70.5 1420.2,70.2 "/>
<polygon class="st2" points="1451.3,70.4 1451.7,81.1 1452,91.5 1452.2,95.5 1459.2,95.5 1468.3,95.2 1475.7,94.5 1478.6,93.7 
	1480.4,87.7 1482.8,80.6 1485,73.8 1485.9,68.3 1477.3,68.5 1463.8,69.4 "/>
<polygon class="st2" points="1452.5,101.3 1452,142.4 1451.3,165.1 1450.8,174.6 1449.9,178.6 1453.6,174.2 1457.6,165.5 
	1462.6,151.7 1468.6,133.3 1473.5,116.1 1476.8,100.9 1473.2,100.9 1466.9,101.6 1460.1,101.3 "/>
<polygon class="st2" points="1420.2,101.2 1425.2,121.9 1430.2,139.7 1435.3,155.1 1439.1,163.9 1442.5,172.4 1443,177.7 
	1442.2,182.6 1441.2,185.9 1442.1,189.3 1443.5,191.7 1443,187 1443.8,183 1444.8,179.1 1446.1,175.4 1445.9,170.8 1445.4,162 
	1445.2,152 1445.2,140.2 1445.3,126.6 1445.4,115.1 1445.3,106.9 1445.1,102.3 1442.2,102 1433.7,102.1 1426.3,101.5 "/>
<polygon class="st2" points="1565.8,92.9 1569.9,107.2 1572.1,117 1573.8,123.9 1576.9,130.9 1580.3,136 1583.4,142.4 1584.5,147.6 
	1585.7,152.1 1587.3,156.4 1589.7,159.9 1592.6,163.9 1594.9,168 1596,172.6 1596,176.7 1596.5,179.8 1597.9,182.3 1599.8,183.9 
	1601.9,185.9 1602,184.7 1601.2,181.4 1600.5,175.7 1600.3,171.4 1599.7,168 1597.7,164.3 1596.1,160.5 1595.7,154.2 1594.9,141.5 
	1593.9,129.9 1592.7,117.3 1592,107 1591.7,98.1 1591.4,92.9 1587.6,93.7 1580.8,93.8 1573.7,93.5 1569.1,93.1 "/>
<polygon class="st2" points="1599.6,92.7 1601.5,129.9 1601.8,137.3 1602.2,147.4 1602.2,154.3 1601.7,159.1 1601.7,163 
	1602.5,167.3 1604.4,170.9 1606.2,174.9 1606.2,170.4 1606.4,164.2 1608.4,157.6 1610.9,150.2 1614.3,138.1 1617.1,126.5 
	1620.5,112.1 1622.6,99.9 1623.2,93.4 1623.7,89.6 1618,90.3 1611.4,91.6 1606.1,92.1 "/>
<polygon class="st2" points="1597.7,61.1 1598.9,86.2 1607.1,85.5 1613.8,84.4 1619.4,83.6 1623.9,83 1624.9,82.2 1625.7,78.5 
	1627.5,73.7 1629.2,69.8 1630.4,66 1631.1,62.7 1631.2,59.5 1631.5,58.5 1628.3,57.9 1624,57.9 1619.6,58.7 1613.8,59.8 
	1606.9,60.8 "/>
<polygon class="st2" points="1557.1,62.3 1564.1,85.9 1571.1,87 1576.6,87.3 1582.8,87.3 1587.7,87.1 1591,86.8 1590.8,78.3 
	1590.7,70.3 1590.4,65.4 1589.5,61.9 1581,61.3 1573,61.5 1565.9,61.3 1561.5,61.7 "/>
<polygon class="st1" points="212.6,53.8 211.8,58.1 211.8,61 215,60.3 220.7,60.7 226.1,61.6 231.5,62.6 236.9,63 242.9,63.2 
	255.9,63.8 265.9,63.7 272.2,63.7 277.7,63.8 282,64.5 283.4,64.8 284.5,60.7 285.7,57.3 261.8,55 233.7,53 227.1,52.3 222.9,52 
	218.6,52.2 215.8,52.5 "/>
<path class="st0" d="M857.5,92.6c1.8-8.7,11.2-15.8,8.9-24.4c-23.1-1.3-46.2-1.4-69.3-0.2c-0.7,0-1.3,0.2-2,0.3c0,0.2,0,0.4-0.1,0.6
	c2.8,24.2,7.8,48.2,14.8,71.5c4.5,14.9,9.8,29.7,18.8,42.4c2,2.9,4.3,5.9,4.1,9.4c-0.3,5.3-6.3,10.7-3.2,15c3.1-6.5,6.2-13.1,7-20.2
	c0.5-3.8,0.2-7.6,0.9-11.4c0.9-5.3,3.4-10.2,5.6-15.1c5.7-12.9,9.1-26.7,12.5-40.5c1.1-4.5,2.2-9.1,2.2-13.8S856.6,97.2,857.5,92.6z
	"/>
<path class="st0" d="M795.4,74.7l10,0.2c20.4,0.4,40.7,0.8,61.1,0.1"/>
<path class="st0" d="M827.8,75c-1.7,35.8-1.5,71.7,0.5,107.4"/>
<path class="st0" d="M834.4,75.5l-1.7,92.6c-0.2,8.2-0.6,15.3,3.2,22.6"/>
<path class="st0" d="M834,100.3c7.5-0.4,16-0.3,23.4-0.8"/>
<path class="st0" d="M799.7,98.3c8.3,1.5,16.8,1.8,25.2,0.9c0.6-0.1,1.2-0.1,1.8-0.2c0.2,0,0.1,0.7,0.2,0.6"/>
<path class="st0" d="M800.8,105.4c8.4,1.2,17,1.5,25.5,1.1"/>
<path class="st0" d="M632.8,66c-5.4,7.6,1.8,17.4,5.3,26s3.2,18.1,4,27.3c1.3,14.4,5.3,28.5,11.9,41.4c3.8,7.4,8.4,14.6,10,22.7
	s-0.9,17.8-8.3,21.7c13.2-9.8,22.1-24.2,24.9-40.4c0.8-4.9,1.1-9.9,2.7-14.5c1.4-4.1,3.9-7.7,5.7-11.6c2.4-5.4,3.5-11.2,4.6-17
	L703,72c0.4-2.1,0.5-4.9-1.4-5.9c-0.8-0.3-1.7-0.4-2.5-0.3C676.2,66.3,653.3,66.9,632.8,66z"/>
<path class="st0" d="M631.2,76c23.7,2.2,47.6,1.7,71.2-1.5"/>
<path class="st0" d="M664.3,77.4c0.8,11.6,1.5,23.8,2.3,35.4c0.6,8.5,1.1,17.1-0.6,25.4c-0.7,3.2-1.7,6.5-1.7,9.8
	c0.1,2.5,0.5,5,1.1,7.4c1.9,9.3,2.5,18.8,1.8,28.2c-0.2,3.2-0.4,6.3-3,8.2"/>
<path class="st0" d="M672.4,77.2c0.7,17.8,1.3,36.3,1.9,54.1c0.2,2.7,0.1,5.4-0.2,8.1c-0.4,3-1.2,5.9-1.6,9c-0.6,5,0.2,10,0.7,15
	c0.7,7.7,0.5,15.4-0.6,23"/>
<path class="st0" d="M640.4,102.7c8.6,1.7,17.5,2.2,26.2,1.6"/>
<path class="st0" d="M673.3,103.6c2.3,1.1,5,0.2,7.6-0.1c1.8-0.1,3.6-0.1,5.4,0c3.7,0,7.4-0.4,11-1.3"/>
<path class="st0" d="M641,109.8c2.9-0.4,5.8,0.2,8.8,0.6c5.6,0.6,11.2,0.8,16.8,0.6"/>
<path class="st0" d="M493.1,67.3c-0.4,6.8,0.5,13.7,2.6,20.2c1.2,4.2,2.9,8.3,4,12.6c1.1,4.9,2,10,2.5,15
	c3.3,22.7,10.6,44.6,21.5,64.7c2.3,4.3,4.9,8.6,6,13.3c0.7,3.1,1.1,6.3,1.1,9.6c0,3.2,0.5,6.3,1.3,9.4c-3.3-7.6,2-16.2,2.3-24.5
	c0.1-4.9-1.5-9.7-1.4-14.6c0.2-4,1.3-7.9,3-11.4c4.6-10.1,12.1-19.2,14.2-30.1c0.7-3.6,0.7-7.2,1.5-10.8c0.9-4.2,2.7-8.2,3.6-12.4
	c1-4.6,1-9.4,2-14c2-8.7,7.8-16.6,7.4-25.4c0-0.5-0.1-1-0.3-1.4c-0.6-0.6-1.5-0.8-2.4-0.7c-22.1,1-44.3,0.7-66.3-0.9
	c-1.2-0.1-2.4,0.1-2.9,1.2C493,67.2,492.9,68.9,493.1,67.3z"/>
<path class="st0" d="M493,73.3c23.6,2,47.3,2.5,71,1.7"/>
<path class="st0" d="M531.2,75.5v61.7c0,6.2,0,12.5-1.3,18.6c-0.8,3.4-1.9,6.8-2.1,10.3c-0.4,9.2,5.9,19.4,2.1,27.8"/>
<path class="st0" d="M524.1,75.3L524,140c0.2,6.2-0.2,12.4-1,18.5c-0.6,2.6-0.9,5.2-1,7.8c0.1,5.3,2.8,11.5,3.6,16.8"/>
<path class="st0" d="M531.1,100.6c8.4,0.8,16.9,0.5,25.3-0.9"/>
<path class="st0" d="M530.8,107.3c8.3,1,16.7,0.9,25-0.1"/>
<path class="st0" d="M499.6,98.9c8,1.7,16.3,2.3,24.5,1.6"/>
<path class="st0" d="M501.1,106.3c7.7,1,15.5,1.1,23.2,0.3"/>
<path class="st0" d="M424,64.8c0.5,5.4-0.3,10.8-2.4,15.9c-1.4,3.4-3.5,6.7-4.3,10.3c-0.8,3.2-0.6,6.5-0.9,9.7
	c-0.4,4.1-1.2,8.1-2.2,12.1c-4.5,18.9-9.1,37.8-16.5,55.8c-2.1,5.1-4.5,10.5-3.3,15.9c0.4,1.8,1.1,3.5,1.2,5.3
	c0.1,4-3.4,7.7-2.3,11.6c-0.1-5.3-1.4-10.6-3.9-15.3c-1.5-2.9-3.6-5.6-5.2-8.4c-2.7-4.6-4.5-9.7-6.2-14.7c-5-14.5-10.1-29-13.4-44
	c-1.9-8.8-3.2-17.8-5.9-26.5c-3.1-10-8-20.5-5.4-30.6c4.6-2.1,9.9-0.8,15,0c6.1,0.9,12.3,0.7,18.5,0.5l24.3-0.7
	C415.5,61.4,421.1,61.7,424,64.8z"/>
<path class="st0" d="M352.5,71.1c23.9-0.1,47.9,3.8,71.4,0.3"/>
<path class="st0" d="M386.1,72.9c-1.5,34.3-1.4,68.6,0.3,102.9c0.1,2.5,0.5,5,1.2,7.4"/>
<path class="st0" d="M393.8,73.2c-0.9,5.2-1.4,10.5-1.4,15.8c-0.5,17-1,33.9-0.8,50.9c0.2,11.4,0.7,22.8-0.4,34.1
	c-0.3,1.9-0.3,3.8-0.1,5.7c0.5,2,1.1,3.9,1.9,5.8c1.2,3.7,1.2,7.7,0,11.4"/>
<path class="st0" d="M359.4,95.9c8.2,1.4,17.4,2.5,25.8,2"/>
<path class="st0" d="M361.1,102.9c8,1.4,16.1,1.9,24.2,1.6"/>
<path class="st0" d="M392,104.5c7.9,0.6,15.8,0.6,23.7,0.1"/>
<path class="st0" d="M392.5,98.6c7.9-1,15.8-1.2,23.7-0.6"/>
<path class="st0" d="M285.5,57.8c-5.9,19.8-11.3,39.7-16.1,59.7c-1.3,5.4-2.6,10.9-5.2,15.9c-1.6,3.1-3.7,5.9-5,9
	c-2.3,5.4-2.4,11.6-5.1,16.8c-2.4,4.7-6.7,8.5-7.8,13.6c-0.9,4,0.2,8.4-1.9,11.9c-2,3.3-6.6,5-7.3,8.7c-0.6-6.5-0.8-13.4-1.1-20.3
	c0-2.6-0.3-5.2-0.7-7.8c-0.7-3.1-1.5-6.1-2.6-9.1c-3.2-9.9-5.6-20.1-7.9-30.2c-2-8.1-3.6-16.3-4.7-24.5c-0.8-6.4-1-12.9-2.6-19.2
	c-1.3-4.8-3.4-9.3-4.7-14s-1.7-10,0-14.4c4.8-2.2,10.4-1.9,15.7-1.4c19.2,1.6,38.4,3.3,57.5,5C285.6,57.6,285.3,57.7,285.5,57.8z"/>
<path class="st0" d="M211.4,61.3c3.8-1.8,8.3-0.8,12.5,0c15.4,2.9,31.3,2.7,47,2.6c4.3-0.2,8.5,0,12.8,0.7"/>
<path class="st0" d="M252.2,64.1c-1.2,3.2-1.2,6.8-1.3,10.2c-0.3,22.4-1.5,44.8-3.8,67.2c-0.7,5.3-1,10.7-1.1,16
	c0.2,2.4,0,4.8-0.6,7.2c-0.7,2.2-2.1,4.1-2.9,6.2c-2.1,5.9,0.9,13.1-2.8,18.2"/>
<path class="st0" d="M673.3,110.8c7.6-0.2,15.3-1,22.8-2.3"/>
<path class="st0" d="M244.3,63.7l-4.2,80.4c-0.3,4.8-0.4,9.7-0.1,14.5c0.3,3.3,0.8,6.6,0,9.9c-1,4.1-4.4,6.8-3.8,11"/>
<path class="st0" d="M218.6,85.3c8.1,1.8,16.4,3,24.6,3.4"/>
<path class="st0" d="M219.4,92.3c7.8,1.6,15.6,2.6,23.5,3.2"/>
<path class="st0" d="M250.4,96.2c8.2,0.7,16.4,0.4,24.6-0.7"/>
<path class="st0" d="M251,89.3c8.7,0.9,17.4,0.7,26-0.8"/>
<path class="st0" d="M834.2,107c8.1-0.2,15.1-0.5,23.3-0.5L834.2,107z"/>
<path class="st0" d="M1028.6,65.9c-1.2-0.2-3.3-0.4-4.1-0.4c-23.3-1.1-46.6-1.1-69.8,0.2c-2.3,8.5,7.3,15.6,9.2,24.2
	c1,4.4-0.2,9-0.2,13.6s1.1,9.2,2.3,13.7c3.5,13.6,7,27.3,12.9,40.2c2.2,4.9,4.8,9.7,5.8,15c0.7,3.7,0.4,7.6,0.9,11.3
	c0.9,7.1,4.1,13.6,7.3,20.1c3.2-4.3-3-9.6-3.3-14.9c-0.2-3.4,2.2-6.5,4.2-9.3c9.2-12.6,14.8-27.4,19.4-42.1
	c7.3-23.2,12.6-47,15.7-71.1C1028.7,66.2,1028.6,66.1,1028.6,65.9z"/>
<path class="st0" d="M1028.2,72.2l-10.3,0.2c-21,0.4-42.1,0.8-63.1,0.1"/>
<path class="st0" d="M994.8,72.8c1.7,35.3,1,71.5-1.1,106.7"/>
<path class="st0" d="M987.9,73l1.7,91.9c0.2,8.1,0.6,15.5-3.4,22.8"/>
<path class="st0" d="M988.1,97.4c-7.7-0.4-16.2-0.8-24-1.3"/>
<path class="st0" d="M1023.8,95.3c-9.2,1.7-18.6,2-27.9,0.9l-0.5-0.1"/>
<path class="st0" d="M1022.6,103.2c-8.5,1.1-18.4,2.2-27,1.6"/>
<path class="st0" d="M1196.2,63.5c5.6,7.6-1.8,17.2-5.5,25.8s-3.4,18-4.2,27.1c-1.3,14.4-5.5,28.4-12.3,41.1
	c-3.9,7.4-8.7,14.5-10.3,22.5s0.9,17.7,8.6,21.6c-13.5-9.5-22.7-23.9-25.8-40.1c-0.8-4.8-1.1-9.8-2.8-14.4c-1.5-4-4-7.6-5.8-11.5
	c-2.5-5.3-3.7-11.2-4.8-16.9l-9.6-49.3c-0.4-2.1-0.5-4.9,1.5-5.8c0.8-0.3,1.7-0.4,2.6-0.3C1151.4,63.9,1175,64.5,1196.2,63.5z"/>
<path class="st0" d="M1197.8,73.5c-24.5,2.1-49.2,1.6-73.6-1.7"/>
<path class="st0" d="M1164.1,74.8c-0.8,11.5-2.1,23.7-2.8,35.2c-0.6,8.4-1.1,16.9,0.7,25.2c0.7,3.2,1.8,6.4,1.8,9.7
	c-0.1,2.5-0.5,4.9-1.1,7.3c-1.9,9.2-2.6,18.6-1.9,28c0.2,3.2,0.3,6,3.1,7.9"/>
<path class="st0" d="M1155.5,74.8c-0.7,17.7-1.6,35.8-2.2,53.6c-0.2,2.7-0.1,5.4,0.2,8.1c0.4,3,1.3,5.9,1.7,8.9
	c0.6,5-0.3,9.9-0.7,14.9c-0.6,7.8-0.2,15.7,1,23.5"/>
<path class="st0" d="M1187.8,100.8c-8.6,1.1-17.3,1.4-25.9,0.9"/>
<path class="st0" d="M1154.3,102c-3.5,0.5-4.6,0.1-8.6-0.1c-2.1-0.1-3,0.3-4.8,0.1c-3.8-0.4-7.5-1.1-11.2-1.9"/>
<path class="st0" d="M1187.7,107.1c-3-0.4-6,0.2-9,0.6c-5.8,0.6-11.6,0.8-17.4,0.6"/>
<path class="st0" d="M1154.3,108c-7.9-0.2-15.8-1-23.6-2.3"/>
<path class="st0" d="M1340.6,63.9c0.4,7.1-0.5,14.2-2.7,21c-1.3,4.2-3,8.3-4.1,12.5c-1.2,4.9-2,9.9-2.6,14.9
	c-3.5,22.6-11,44.4-22.2,64.3c-2.4,4.3-5,8.5-6.2,13.2c-0.7,3.1-1.1,6.3-1.2,9.5c0,3.1-0.5,6.3-1.4,9.3c3.5-7.6-2.1-16-2.4-24.3
	c-0.1-4.9,1.6-9.6,1.4-14.5c-0.3-4-1.3-7.8-3.2-11.4c-4.8-10.1-12.5-19-14.7-29.9c-0.7-3.5-0.8-7.2-1.5-10.7
	c-0.9-4.2-2.8-8.1-3.8-12.3c-1.1-4.6-1-9.3-2.1-13.9c-2-8.6-8-16.4-7.7-25.2c0-0.5,0.1-1,0.4-1.4c0.7-0.6,1.6-0.8,2.4-0.7
	c22.8,1,45.7,0.7,68.5-0.9c1.3-0.1,2.5-0.1,3,1C1340.5,64.4,1340.7,65.4,1340.6,63.9z"/>
<path class="st0" d="M1340.6,70.8c-24.4,1.9-48.9,2.5-73.3,1.7"/>
<path class="st0" d="M1301.1,72.9v61.2c0,6.2,0,12.4,1.4,18.5c0.8,3.4,2,6.7,2.1,10.2c0.4,9.1-6.1,19.2-2.2,27.5"/>
<path class="st0" d="M1308.5,72.8l0.1,64.3c-0.2,6.2,0.2,12.3,1.1,18.4c0.6,2.5,0.9,5.1,1,7.7c-0.1,5.3-3.1,11.8-3.9,17"/>
<path class="st0" d="M1301.2,97.9c-8.8,0.9-17.6,0.7-26.4-0.7"/>
<path class="st0" d="M1301.5,104.6c-8.6,1-17.2,0.9-25.8-0.1"/>
<path class="st0" d="M1333.7,96.2c-8.3,1.7-16.8,2.2-25.3,1.6"/>
<path class="st0" d="M1332.3,103.6c-8,1-16,1.1-24,0.3"/>
<path class="st0" d="M1411.9,62.4c-0.5,5.4,0.4,10.8,2.5,15.8c1.5,3.4,3.6,6.6,4.5,10.2c0.8,3.1,0.7,6.4,0.9,9.6
	c0.4,4.1,1.2,8.1,2.3,12c4.7,18.8,9.4,37.6,17.1,55.4c2.2,5,4.7,10.4,3.5,15.8c-0.4,1.8-1.2,3.5-1.2,5.3c-0.1,4,3.5,7.7,2.4,11.5
	c0.1-5.3,1.4-10.5,4-15.2c1.6-2.9,3.7-5.5,5.4-8.3c2.8-4.6,4.6-9.6,6.4-14.6c5.2-14.4,10.5-28.8,13.8-43.7c2-8.8,3.3-17.7,6.1-26.3
	c3.2-9.9,8.3-20.3,5.6-30.4c-4.7-2.1-10.3-0.8-15.4,0c-6.3,0.9-12.7,0.7-19.1,0.5l-25.1-0.8C1420.6,59,1414.8,59.2,1411.9,62.4z"/>
<path class="st0" d="M1485.7,68.6c-24.7-0.1-49.5,3.8-73.7,0.3"/>
<path class="st0" d="M1451.1,70.4c1.5,34,1.4,68.1-0.3,102.2c-0.1,2.5-0.6,5-1.2,7.4"/>
<path class="st0" d="M1443.1,70.7c0.9,5.2,1.4,10.4,1.4,15.7c0.5,16.8,1.1,33.7,0.8,50.5c-0.2,11.3-0.7,22.6,0.4,33.8
	c0.3,1.9,0.3,3.8,0.1,5.7c-0.5,2-1.2,3.9-2,5.8c-1.2,3.7-1.2,7.6,0,11.3"/>
<path class="st0" d="M1478.4,94c-8.7,1.4-17.6,1.8-26.4,1.3"/>
<path class="st0" d="M1476.8,100.6c-8,1.3-16.7,1-24.8,0.6"/>
<path class="st0" d="M1444.9,101.8c-6.5,0.5-13,0.4-19.5-0.2c-1.9-0.3-3.8-0.2-5.7,0.2"/>
<path class="st0" d="M1444.4,95.9c-8.1-1-16.3-1.2-24.5-0.6"/>
<path class="st0" d="M1630.2,52c-5-2.2-10.7-1.8-16.2-1.4c-19.6,1.5-38.9,3.3-58.4,4.9c-0.1,0.1-0.2,0.2-0.3,0.3l0,0l0,0l-0.2,0.2
	l-0.1,0.1l0,0c6.1,19.5,11.6,39.2,16.6,59.1c1.3,5.4,2.7,10.9,5.4,15.8c1.7,3,3.8,5.8,5.2,9c2.4,5.4,2.5,11.5,5.3,16.7
	c2.4,4.7,6.9,8.4,8.1,13.5c0.9,3.9-0.2,8.4,2,11.8c2.1,3.2,6.8,4.9,7.5,8.7c0.6-6.5,0.9-13.3,1.1-20.1c0-2.6,0.3-5.2,0.7-7.8
	c0.7-3.1,1.6-6.1,2.7-9.1c3.3-9.8,5.8-19.9,8.2-30c2.1-8,3.7-16.1,4.8-24.3c0.8-6.4,1-12.8,2.7-19c1.3-4.7,3.5-9.2,4.9-14
	S1631.9,56.4,1630.2,52z"/>
<path class="st0" d="M1631.4,58.9c-4-1.8-8.6-0.8-12.9,0c-15.9,2.9-32.3,2.7-48.5,2.6c-4.4-0.2-8.8,0-13.2,0.7"/>
<path class="st0" d="M1589.3,61.6c1.2,3.2,1.3,6.8,1.3,10.2c0.3,22.3,1.6,44.5,3.9,66.7c0.7,5.3,1.1,10.6,1.1,15.9
	c-0.2,2.4,0,4.8,0.6,7.1c0.7,2.2,2.2,4,3,6.2c2.1,5.8-0.2,13.8,3.6,18.8"/>
<path class="st0" d="M1597.5,61.3l4.3,79.9c0.4,4.8,0.4,9.6,0.1,14.4c-0.3,3.3-0.8,6.6,0,9.8c1,4.1,4.4,8.5,3.9,12.7"/>
<path class="st0" d="M1624.1,82.7c-8.4,1.8-16.9,3-25.5,3.4"/>
<path class="st0" d="M1623.2,89.7c-8,1.6-16.1,2.6-24.3,3.2"/>
<path class="st0" d="M1591.1,93.6c-8.5,0.7-17,0.4-25.4-0.7"/>
<path class="st0" d="M1590.6,86.7c-8.9,0.9-18,0.7-26.8-0.8"/>
<path class="st0" d="M988.5,105.4c-8.3-0.2-16.5-0.3-24.8-1.1"/>
</svg>
