<?xml version="1.0" encoding="UTF-8"?><svg id="Layer_1" xmlns="http://www.w3.org/2000/svg" width="350.28" height="261.62" viewBox="0 0 350.28 261.62"><defs><style>.cls-1{fill:#fff;}</style></defs><path class="cls-1" d="M350.17,260.28H4.17c0-85.33,0-170.67,0-256,115.33,0,230.67,0,346,0,0,85.33,0,170.67,0,256Zm-148.74-59.2c5.52-1.11,11.05-2.21,17.5-3.5-2.19,7.88-4.25,14.37-5.77,20.98-2.12,9.23-5.98,17.11-14.21,22.52-1.88,1.24-2.85,3.85-4.25,5.84l1.44,1.15,10.02-9.01c-.81,5.31-1.53,10.06-2.24,14.8l1.65,.22c1.26-5.26,2.53-10.52,3.79-15.77l.74,.13c.88,4.1,1.75,8.21,2.82,13.19,4.94-5.28-.67-9.75,.54-14,3.49-.13,6.88,5.27,10.82-.38-3.49-1.94-6.76-3.75-10.21-5.66,5.43-11.61,10.73-23.06,16.17-34.44,.58-1.22,1.83-2.27,3.01-3.03,11.56-7.47,23.41-14.53,34.68-22.41,5.52-3.87,10.79-7.23,17.61-8.5,4.4-.82,8.53-3.43,12.54-5.67,1.02-.57,1.64-2.92,1.4-4.27-.15-.83-2.37-2.02-3.48-1.85-9.63,1.47-15.69-4.42-21.85-10.19,3.89-1.26,7.88-2.3,11.67-3.83,15.56-6.28,31.07-12.7,46.59-19.1,4.08-1.68,8.67-3.69,8.47-8.69-.18-4.72-3.58-8.01-8.33-9.56-2.18-.71-4.48-1.47-6.31-2.78-4.56-3.26-9.07-3.33-14.01-1.02-1.51,.71-3.43,.49-5.14,.82-2.93,.55-6.14,.63-8.69,1.95-3.19,1.66-5.88,4.33-8.71,6.66-19.33,15.94-41.53,17.13-64.71,12.27-7.79-1.64-15.32-4.48-22.98-6.71q-25.08-7.29-42.36-27.02c-3.71-4.19-7.89-8.28-12.6-11.22-16.36-10.21-39.5-1.57-44.84,16.35-2.6,.31-5.2,.63-7.96,.96,4.95-14.75,5.36-29.74,.53-35.2-1.96,6.13-4.64,11.77-5.41,17.67-.76,5.86,.4,11.97,.69,17.44-1.75-1.04-4.44-2.16-6.52-3.98-3.95-3.43-8.47-6.76-10.9-11.15-1.1-1.99,2.21-6.43,3.54-9.75,.25-.61,.45-1.36,.92-1.75,2.29-1.91,4.59-3.84,7.04-5.53,2.16-1.49,4.81-2.35,6.75-4.05,2.89-2.54,2.3-4.57-1.37-5.63-2.37-.68-4.83-1.07-6.04-1.33-.34-8.31-.03-16.26-1.33-23.92-.44-2.57-4.98-4.45-7.64-6.64-1.18,1.98-2.35,3.98-3.55,5.95-1.85,3.07-3.72,6.12-6.17,10.14-1.41-2.98-2.82-4.69-2.97-6.52-.46-5.39-4.29-8.48-7.55-11.9-3.88-4.08-7.13-3.31-9.6,1.7-1.68,3.4-3.39,6.84-5.56,9.93-2.7,3.84-2.77,7.67-1.2,11.81,.41,1.09,.79,2.19,1.37,3.81-2.45-.76-4.15-1.41-5.92-1.82-7.68-1.79-14.92-.54-21.5,3.75-2.67,1.74-4.08,4.16-.83,6.84,2.76,2.27,5.56,4.49,8.96,7.22-2.27,3.59-4.39,6.66-6.19,9.91-1.09,1.98-2.38,4.24-2.36,6.36,.05,4.39,.91,8.77,1.42,13.07,7.38,1.48,13-.81,18.26-5.79,.7,4.15,1.18,7.75,1.92,11.29,1,4.84,3.57,6.03,7.93,3.92,5.01-2.42,9.02-5.73,12.35-10.4,6.02-8.44,11.56-6.88,18.2-3.13,4.28,2.42,7.74,6.3,12.01,9.9h-14.06c1.76,2.41,2.49,4.39,3.89,5.15,6.24,3.38,12.44,8.23,19.1,9.08,7.37,.94,8.9,4.26,9.42,10.12,.12,1.31,.65,2.58,.95,3.88,2.19,9.37,.07,18.46-5.44,25.56-6.98,8.98-13.67,19.15-26.3,21.64-.42,.08-.77,.54-1.15,.82,2.47,3.1,4.82,3.98,7.91,1.81,5.65-3.98,11.51-7.94,16.22-12.91,5-5.27,8.78-11.71,12.89-17.35,.67,2.4,1.5,5.44,2.38,8.46,6.29,21.76,19.13,37.41,41.39,44.22,2.54,.78,5.03,1.81,7.62,2.33,11.16,2.22,22.34,4.3,33.82,6.48-.93,4.51-2.39,9.81-3.05,15.22-.68,5.55-3.29,8.9-8.42,11.09-4.93,2.11-9.82,4.74-11.38,11.55,3.81-2.4,7.06-4.43,10.38-6.53-.42,4.51-7.21,5.47-5.38,11.78,4.13-4.61,7.65-8.55,11.39-12.73,1.15,4.84-2.2,9.21,.3,13.1l2.1,.15c.97-5.25,1.94-10.49,2.74-14.81,2.86-1.54,5.14-2.78,7.43-4.02l-.59-1.35c-1.69-.41-3.39-.82-5.32-1.28,3.14-7.87,6.17-15.44,9.19-23.01l-.11,.09Z"/><path d="M274.13,141.23c6.17,5.77,12.23,11.67,21.86,10.19,1.11-.17,3.33,1.02,3.48,1.85,.24,1.35-.38,3.7-1.4,4.27-4.01,2.25-8.14,4.85-12.54,5.67-6.82,1.27-12.09,4.63-17.61,8.5-11.27,7.89-23.11,14.94-34.68,22.41-1.18,.76-2.42,1.81-3.01,3.03-5.44,11.38-10.74,22.83-16.17,34.44,3.45,1.91,6.72,3.73,10.21,5.66-3.95,5.65-7.33,.25-10.82,.38-1.21,4.25,4.4,8.72-.54,14-1.06-4.99-1.94-9.09-2.82-13.19l-.74-.13c-1.26,5.26-2.53,10.52-3.79,15.77l-1.65-.22c.72-4.75,1.44-9.49,2.24-14.8l-10.02,9.01-1.44-1.15c1.39-1.98,2.36-4.6,4.25-5.84,8.23-5.41,12.08-13.3,14.21-22.52,1.52-6.61,3.58-13.1,5.77-20.98-6.45,1.29-11.98,2.4-17.51,3.51-2.52-.33-5.03-.68-7.67-1.04-1.24,6.77-2.34,12.77-3.43,18.78,1.54-1.76,2.2-3.83,3.3-5.62,2.53-4.14,5.27-8.15,7.93-12.22-3.02,7.57-6.05,15.14-9.19,23.01,1.93,.47,3.63,.87,5.32,1.28l.59,1.35c-2.29,1.24-4.58,2.47-7.43,4.02-.8,4.32-1.77,9.57-2.74,14.81l-2.1-.15c-2.51-3.89,.84-8.26-.3-13.1-3.74,4.18-7.26,8.12-11.39,12.73-1.83-6.31,4.96-7.26,5.38-11.78-3.33,2.09-6.57,4.13-10.38,6.53,1.56-6.81,6.45-9.44,11.38-11.55,5.13-2.19,7.74-5.54,8.42-11.09,.66-5.4,2.12-10.71,3.05-15.22-11.47-2.18-22.66-4.26-33.82-6.48-2.59-.52-5.08-1.55-7.62-2.33-22.27-6.82-35.1-22.46-41.39-44.22-.87-3.02-1.7-6.06-2.38-8.46-4.1,5.64-7.88,12.08-12.89,17.35-4.72,4.97-10.57,8.93-16.22,12.91-3.08,2.17-5.44,1.3-7.91-1.81,.38-.28,.73-.74,1.15-.82,12.63-2.49,19.32-12.66,26.3-21.64,5.52-7.11,7.63-16.19,5.44-25.56-.3-1.3-.84-2.57-.95-3.88-.52-5.86-2.05-9.18-9.42-10.12-6.66-.85-12.86-5.7-19.1-9.08-1.39-.76-2.13-2.74-3.89-5.15h14.06c-4.28-3.6-7.73-7.49-12.01-9.9-6.64-3.75-12.18-5.3-18.2,3.13-3.33,4.67-7.35,7.98-12.35,10.4-4.36,2.11-6.93,.93-7.93-3.92-.73-3.54-1.22-7.14-1.92-11.29-5.26,4.98-10.88,7.27-18.26,5.79-.52-4.3-1.38-8.68-1.42-13.07-.02-2.12,1.27-4.38,2.36-6.36,1.8-3.25,3.92-6.32,6.19-9.91-3.39-2.73-6.2-4.95-8.96-7.22-3.25-2.68-1.84-5.1,.83-6.84,6.58-4.29,13.82-5.54,21.5-3.75,1.76,.41,3.47,1.06,5.92,1.82-.58-1.62-.96-2.72-1.37-3.81-1.57-4.14-1.5-7.97,1.2-11.81,2.17-3.09,3.89-6.53,5.56-9.93,2.47-5.01,5.72-5.78,9.6-1.7,3.26,3.42,7.1,6.51,7.55,11.9,.15,1.82,1.56,3.54,2.97,6.52,2.45-4.02,4.32-7.07,6.17-10.14,1.19-1.98,2.36-3.97,3.55-5.95,2.67,2.19,7.21,4.07,7.64,6.64,1.3,7.67,.99,15.61,1.33,23.92,1.21,.26,3.67,.64,6.04,1.33,3.67,1.06,4.26,3.09,1.37,5.63-1.94,1.7-4.59,2.56-6.75,4.05-2.45,1.69-4.75,3.62-7.04,5.53-.47,.39-.67,1.14-.92,1.75-1.33,3.32-4.64,7.76-3.54,9.75,2.43,4.39,6.95,7.72,10.9,11.15,2.09,1.81,4.77,2.94,6.52,3.98-.29-5.47-1.45-11.58-.69-17.44,.77-5.89,3.45-11.54,5.41-17.67,4.83,5.45,4.41,20.44-.53,35.2,2.76-.33,5.36-.65,7.96-.96l-.1-.11c2.37,2.04,4.84,3.99,7.1,6.16,2.81,2.7,3.68,5.55-.16,8.19-.8,.55-1.68,1-2.75,1.63,1.89,2.11,3.03,3.52,4.3,4.8,5.99,5.98,12.22,11.73,17.94,17.95,2.84,3.09,3.06,7.2,.99,11.71-2.89-12.56-14.76-16.62-22.16-26.24,.4,4,1.06,6.67,.87,9.27-.82,11.13,2.78,21.36,6.21,31.59,6.18,18.42,18.46,30.63,37.02,36.95,15.82,5.39,31.89,7.29,48.56,7.21,28.15-.14,49.71-14.51,70.67-30.88-14.17,5.15-28.76,7.29-43.74,8.67-20.92,1.92-40.31-2.07-59.07-10.72-12.31-5.67-15.95-17.46-20.47-28.59,2.26,3.42,4.11,7.11,5.89,10.84,4.15,8.67,10.59,14.78,19.79,17.87,7.4,2.48,14.71,5.23,22.18,7.49,9.77,2.95,19.77,2.21,29.72,1.01,9.87-1.18,19.88-1.82,29.54-3.96,10.34-2.29,20.41-5.91,30.5-9.24,4.01-1.32,7.76-3.42,11.62-5.17l-.59-1.39c-8.46,0-16.96-.47-25.38,.13-8.36,.6-16.64,2.29-24.95,3.5,11.88-5.22,24.15-8.09,37.3-7.07-1.9-1.57-3.87-3.33-5.88-3.38-6.95-.18-13.91,.25-20.87,.39-1.73,.03-3.47-.16-5.2-.25,.02-.72,.04-1.45,.07-2.17h20.98c.05-.78,.1-1.56,.15-2.34-7.1-.96-14.2-1.92-22.39-3.03,8.91-2.27,16.58-.04,24.29,1.13l-.05-.06ZM60.77,65.95c5.06-14.55,18.34-12.38,29.31-14.76l-.19-1.53-17.71-.81c7.7-24.57,7.74-25,3.11-29.47-5.61,7.84-11.29,15.78-17.85,24.94-.52-2.84-.95-4.43-1.08-6.05-.45-5.64-.38-11.36-1.36-16.89-.54-3.03-2.8-5.76-4.29-8.62l-1.99,.37c-1.22,2.42-1.97,5.3-3.75,7.18-6.74,7.11-7.72,14.7-2.98,23.17,.07,.13-.27,.5-.55,.97-10.21-1.99-20.74-5.82-30.12,3.21,5.57,1.15,11.19,.96,16.69,1.68,5.24,.69,10.35,2.33,14.73,3.37-4.12,1.45-8.66,1.56-13.6-.86-3.3-1.62-7.71-.96-11.62-1.32l-.52,2.26c2.93,1.28,5.87,2.56,8.98,3.92-10.52,7.23-13.92,15.35-11.26,27.89,2.24-7.37,6.32-12.01,13.01-14.19,.8-.26,1.27-1.96,1.64-3.08,1.54-4.76,5.37-6.5,8.91-3.95-5.25,1.34-6.67,3.74-5.9,9.95,.65,5.27,1.15,10.57,2,15.81,.33,2,1.47,3.87,2.24,5.8,2.03-.86,4.34-1.35,6.03-2.65,7.62-5.84,10.24-14.54,12.27-23.32,.86-3.71,1.95-5.11,5.85-3.04Zm.61,1.91l-4.21-1.51c-.75,3.58-1.14,6.55-2.03,9.37-.92,2.9-2.32,5.64-3.83,9.22,6.98-7.57,8.25-7.91,20.45-5.99-3.52-6.76,2.39-20.06,11.31-24.62-10.27,.33-16.49,6.16-21.69,13.53Zm47.65,32.36l.96-2.32c-3.83-2.18-7.67-6.19-11.49-6.18-8.61,.03-17.21,2.06-26.17,3.33,12.02,3.35,23.48,10.06,36.7,5.17Zm120.18,94.49c-3.66,1.88-8.4,2.73-9.26,5.03-2.93,7.86-4.5,16.24-6.59,24.41l.41,.11c4.94-9.47,9.88-18.93,15.43-29.55ZM28.64,71.89c-6.13,2.73-10.93,6.01-11.58,13.23,10.34-2.46,13.78-6.31,11.58-13.23Zm67.71-9.54l-1.46-.18c-4.91,7.13-6,17.18-1.66,24.64l3.12-24.47Zm-15.38-37.03c-1.35,7.12-2.74,14.47-4.06,21.47,3.16-.47,6.53-15.08,4.06-21.47Z"/><path d="M102.19,89.34c5.34-17.92,28.47-26.56,44.84-16.35,4.71,2.94,8.89,7.03,12.6,11.22q17.37,19.66,42.36,27.02c7.67,2.23,15.2,5.08,22.98,6.71,23.18,4.87,45.39,3.68,64.71-12.27,2.82-2.33,5.51-4.99,8.71-6.66,2.55-1.33,5.76-1.4,8.69-1.95,1.71-.32,3.63-.11,5.14-.82,4.94-2.31,9.45-2.24,14.01,1.02,1.83,1.31,4.13,2.07,6.31,2.78,4.74,1.55,8.15,4.84,8.33,9.56,.19,4.99-4.39,7-8.47,8.69-15.52,6.4-31.02,12.82-46.59,19.1-3.79,1.53-7.77,2.57-11.67,3.83l.05,.06c1.28-.97,2.42-2.26,3.85-2.86,16.06-6.79,32.16-13.47,48.25-20.19,3.35-1.4,6.87-2.55,9.96-4.39,2.93-1.74,3.62-4.37,1.48-7.64-3.37-5.13-10.44-7.58-15.95-4.8-5.63,2.85-11.06,6.09-16.59,9.14-1.19,.66-2.41,1.27-3.62,1.9l-.66-1.17c7.04-4.26,14.09-8.53,21.04-12.73-4.64-2.26-8.97-1.05-12.96,2.25-4.06,3.36-8.09,6.76-12.13,10.14l-.84-.99c3.92-3.64,7.85-7.28,11.77-10.92-.29-.47-.58-.95-.86-1.42-2.52,1.21-5.3,2.07-7.49,3.71-6.12,4.57-11.39,10.67-18.08,14-17.96,8.94-37.09,10.06-56.43,4.82-10.91-2.95-21.53-7.11-32.54-9.53-11.57-2.53-20.15-8.52-27.37-17.62-4.72-5.95-9.96-11.79-15.97-16.36-14.38-10.94-28.9-6.86-41.36,4.72-2.3,2.14-3.73,5.22-5.57,7.87l.1,.11Z"/><path class="cls-1" d="M102.09,89.24c1.83-2.65,3.26-5.73,5.57-7.87,12.46-11.58,26.98-15.66,41.36-4.72,6.01,4.57,11.25,10.41,15.97,16.36,7.22,9.1,15.81,15.08,27.37,17.62,11.01,2.41,21.63,6.57,32.54,9.53,19.34,5.24,38.47,4.12,56.43-4.82,6.69-3.33,11.96-9.43,18.08-14,2.2-1.64,4.98-2.5,7.49-3.71,.29,.47,.58,.95,.86,1.42-3.92,3.64-7.85,7.28-11.77,10.92l.84,.99c4.04-3.38,8.07-6.78,12.13-10.14,3.99-3.3,8.32-4.51,12.96-2.25-6.95,4.21-13.99,8.47-21.04,12.73l.66,1.17c1.21-.63,2.43-1.24,3.62-1.9,5.53-3.05,10.96-6.29,16.59-9.14,5.51-2.79,12.58-.33,15.95,4.8,2.15,3.27,1.45,5.9-1.48,7.64-3.09,1.84-6.61,2.99-9.96,4.39-16.09,6.72-32.19,13.4-48.25,20.19-1.43,.6-2.57,1.89-3.85,2.86-7.71-1.17-15.38-3.4-24.29-1.13,8.18,1.11,15.29,2.07,22.39,3.03-.05,.78-.1,1.56-.15,2.34h-20.98c-.02,.72-.04,1.45-.07,2.17,1.73,.09,3.47,.29,5.2,.25,6.96-.14,13.92-.57,20.87-.39,2.01,.05,3.98,1.81,5.88,3.38-13.15-1.02-25.42,1.85-37.3,7.07,8.31-1.21,16.6-2.9,24.95-3.5,8.42-.61,16.91-.13,25.38-.13l.59,1.39c-3.87,1.75-7.62,3.85-11.62,5.17-10.09,3.33-20.16,6.95-30.5,9.24-9.67,2.14-19.67,2.77-29.54,3.96-9.95,1.19-19.95,1.94-29.72-1.01-7.47-2.25-14.78-5.01-22.18-7.49-9.2-3.09-15.64-9.19-19.79-17.87-1.78-3.73-3.63-7.43-5.89-10.84,4.52,11.14,8.17,22.92,20.47,28.59,18.76,8.64,38.15,12.64,59.07,10.72,14.97-1.38,29.57-3.52,43.74-8.67-20.96,16.37-42.52,30.73-70.67,30.88-16.68,.09-32.74-1.82-48.56-7.21-18.55-6.32-30.83-18.53-37.02-36.95-3.44-10.24-7.04-20.47-6.21-31.59,.19-2.61-.47-5.28-.87-9.27,7.4,9.62,19.27,13.68,22.16,26.24,2.07-4.51,1.85-8.62-.99-11.71-5.72-6.22-11.95-11.97-17.94-17.95-1.28-1.27-2.42-2.68-4.3-4.8,1.07-.63,1.95-1.08,2.75-1.63,3.84-2.64,2.97-5.49,.16-8.19-2.26-2.17-4.73-4.11-7.1-6.16Zm42.74,7c-.1-4.18-4.88-8.66-9.03-8.47-5.37,.25-10.26,5.39-9.65,10.68,.49,4.28,4.1,5.54,7.67,5.74,5.79,.32,11.11-3.78,11.01-7.95Z"/><path class="cls-1" d="M60.77,65.95c-3.9-2.07-5-.67-5.85,3.04-2.03,8.77-4.65,17.47-12.27,23.32-1.69,1.3-4.01,1.79-6.03,2.65-.77-1.93-1.91-3.8-2.24-5.8-.86-5.24-1.35-10.54-2-15.81-.77-6.21,.65-8.62,5.9-9.95-3.54-2.55-7.36-.81-8.91,3.95-.36,1.12-.83,2.82-1.64,3.08-6.69,2.18-10.78,6.81-13.01,14.19-2.66-12.54,.74-20.66,11.26-27.89-3.11-1.36-6.05-2.64-8.98-3.92l.52-2.26c3.91,.36,8.32-.29,11.62,1.32,4.94,2.42,9.48,2.31,13.6,.86-4.38-1.04-9.49-2.68-14.73-3.37-5.5-.72-11.12-.53-16.69-1.68,9.38-9.03,19.91-5.19,30.12-3.21,.27-.47,.62-.84,.55-.97-4.75-8.47-3.77-16.06,2.98-23.17,1.79-1.89,2.53-4.76,3.75-7.18l1.99-.37c1.49,2.86,3.75,5.59,4.29,8.62,.99,5.53,.91,11.25,1.36,16.89,.13,1.61,.56,3.2,1.08,6.05,6.56-9.17,12.24-17.11,17.85-24.94,4.63,4.47,4.59,4.9-3.11,29.47l17.71,.81,.19,1.53c-10.97,2.37-24.25,.2-29.31,14.76Zm-13.04-25.51c-5.04,5.94-4.45,8.46,2.1,11.72l-2.1-11.72Zm18.88,9.21l-1.15-1.45c-2.87,1.84-7.43,1.5-8.48,5.7l1.15,1.58,8.48-5.83Z"/><path class="cls-1" d="M61.38,67.87c5.2-7.37,11.42-13.21,21.69-13.53-8.92,4.56-14.83,17.86-11.31,24.62-12.21-1.92-13.48-1.58-20.45,5.99,1.51-3.57,2.92-6.32,3.83-9.22,.89-2.82,1.28-5.79,2.03-9.37l4.21,1.51Z"/><path class="cls-1" d="M109.04,100.22c-13.23,4.89-24.69-1.82-36.7-5.17,8.96-1.27,17.56-3.3,26.17-3.33,3.82-.02,7.66,4,11.49,6.18l-.96,2.32Z"/><path class="cls-1" d="M229.21,194.72c-5.55,10.62-10.49,20.09-15.43,29.55l-.41-.11c2.09-8.18,3.66-16.55,6.59-24.41,.86-2.3,5.6-3.15,9.26-5.03Z"/><path class="cls-1" d="M28.64,71.89c2.2,6.92-1.24,10.77-11.58,13.23,.65-7.22,5.45-10.5,11.58-13.23Z"/><path class="cls-1" d="M96.36,62.34l-3.12,24.47c-4.34-7.46-3.25-17.52,1.66-24.64l1.46,.18Z"/><path class="cls-1" d="M201.54,200.99c-2.66,4.06-5.4,8.07-7.93,12.22-1.1,1.8-1.76,3.86-3.3,5.62,1.1-6,2.2-12.01,3.43-18.78,2.65,.36,5.16,.71,7.67,1.04,.01,0,.12-.1,.12-.1Z"/><path class="cls-1" d="M80.98,25.32c2.47,6.39-.9,21-4.06,21.47,1.33-7,2.72-14.35,4.06-21.47Z"/><path d="M144.83,96.24c.1,4.17-5.22,8.27-11.01,7.95-3.58-.2-7.19-1.46-7.67-5.74-.6-5.3,4.28-10.43,9.65-10.68,4.15-.19,8.93,4.29,9.03,8.47Zm-3.7,.35c-3.39-2.46-5.57-5.27-7.54-5.13-2.06,.14-3.92,3.12-5.87,4.87,2.19,1.7,4.18,4.17,6.64,4.79,1.41,.36,3.58-2.28,6.77-4.53Z"/><path d="M47.73,40.44l2.1,11.72c-6.55-3.27-7.14-5.79-2.1-11.72Z"/><path d="M66.61,49.65l-8.48,5.83-1.15-1.58c1.05-4.2,5.61-3.86,8.48-5.7l1.15,1.45Z"/><path class="cls-1" d="M141.13,96.59c-3.19,2.25-5.36,4.88-6.77,4.53-2.46-.62-4.45-3.09-6.64-4.79,1.95-1.74,3.81-4.72,5.87-4.87,1.97-.14,4.15,2.67,7.54,5.13Z"/></svg>